M48
; DRILL file {KiCad 9.0.5} date 2026-01-14T21:12:55-0800
; FORMAT={-:-/ absolute / metric / decimal}
; #@! TF.CreationDate,2026-01-14T21:12:55-08:00
; #@! TF.GenerationSoftware,Kicad,Pcbnew,9.0.5
; #@! TF.FileFunction,Plated,1,4,PTH
FMAT,2
METRIC
; #@! TA.AperFunction,Plated,PTH,ViaDrill
T1C0.200
; #@! TA.AperFunction,Plated,PTH,ViaDrill
T2C0.203
; #@! TA.AperFunction,Plated,PTH,ViaDrill
T3C0.250
; #@! TA.AperFunction,Plated,PTH,ViaDrill
T4C0.300
; #@! TA.AperFunction,Plated,PTH,ComponentDrill
T5C0.700
; #@! TA.AperFunction,Plated,PTH,ComponentDrill
T6C1.910
; #@! TA.AperFunction,Plated,PTH,ComponentDrill
T7C3.700
%
G90
G05
T1
X139.4Y-126.75
X140.1Y-126.75
X140.9Y-126.75
X141.6Y-126.75
X142.4Y-126.75
X143.1Y-126.75
X143.9Y-126.75
X144.6Y-126.75
X145.4Y-126.75
X146.1Y-126.75
X149.753Y-80.247
X156.9Y-126.75
X157.6Y-126.75
X158.4Y-126.75
X159.1Y-126.75
X159.9Y-126.75
X160.6Y-126.75
X161.4Y-126.75
X162.1Y-126.75
X162.9Y-126.75
X163.6Y-126.75
X166.4Y-90.25
X166.4Y-97.25
X166.75Y-101.5
X166.75Y-102.2
X167.1Y-90.25
X167.1Y-97.25
X167.5Y-102.7
X167.5Y-103.4
X170.0Y-103.9
X170.0Y-104.6
T2
X138.75Y-126.75
X139.0Y-126.25
X139.0Y-127.25
X140.5Y-126.25
X140.5Y-127.25
X142.0Y-126.25
X142.0Y-127.25
X143.5Y-126.25
X143.5Y-127.25
X145.0Y-126.25
X145.0Y-127.25
X146.5Y-126.25
X146.5Y-127.25
X146.75Y-126.75
X149.0Y-80.25
X149.25Y-80.75
X149.75Y-81.0
X150.247Y-79.753
X150.3Y-79.0
X150.8Y-79.25
X151.05Y-79.75
X156.25Y-126.75
X156.5Y-126.25
X156.5Y-127.25
X158.0Y-126.25
X158.0Y-127.25
X159.5Y-126.25
X159.5Y-127.25
X161.0Y-126.25
X161.0Y-127.25
X162.5Y-126.25
X162.5Y-127.25
X164.0Y-126.25
X164.0Y-127.25
X164.25Y-126.75
X166.158Y-89.346
X166.16Y-96.25
X166.4Y-100.8
X166.75Y-103.75
X167.35Y-89.51
X167.4Y-98.5
X167.5Y-91.0
X167.5Y-101.25
X167.5Y-104.25
X169.4Y-103.5
X169.4Y-105.0
X170.0Y-103.1
X170.0Y-105.4
T3
X120.7Y-89.2
X121.1Y-102.5
X121.1Y-103.25
X121.1Y-104.0
X121.2Y-93.2
X121.2Y-94.45
X121.4Y-75.2
X121.8Y-91.05
X121.8Y-91.7
X122.1Y-101.55
X122.1Y-104.9
X122.35Y-76.25
X123.4Y-88.45
X123.4Y-101.25
X123.55Y-104.9
X123.6Y-71.1
X123.7Y-92.75
X123.75Y-90.6
X123.9Y-69.3
X124.1Y-88.45
X124.2Y-100.4
X124.35Y-92.75
X124.45Y-77.3
X124.55Y-78.3
X124.6Y-76.15
X124.95Y-105.4
X126.55Y-75.2
X126.75Y-71.55
X126.8Y-87.25
X127.75Y-94.1
X127.8Y-74.6
X127.95Y-98.05
X127.95Y-103.2
X128.7Y-101.2
X129.15Y-103.7
X129.3Y-68.8
X129.3Y-75.2
X129.85Y-100.7
X130.15Y-87.25
X130.2Y-101.8
X130.4Y-88.3
X130.5Y-92.05
X130.5Y-93.25
X130.5Y-94.45
X130.5Y-95.65
X130.5Y-97.45
X130.5Y-99.4
X130.5Y-103.65
X130.5Y-104.85
X130.5Y-106.05
X130.75Y-77.15
X132.5Y-97.3
X133.1Y-103.35
X133.25Y-83.0
X133.45Y-89.6
X133.45Y-90.4
X133.65Y-102.3
X133.7Y-100.05
X135.0Y-108.45
X135.05Y-85.65
X135.225Y-84.075
X135.4Y-97.15
X135.5Y-87.2
X135.5Y-91.65
X135.5Y-93.25
X135.5Y-94.25
X135.5Y-101.25
X135.5Y-102.05
X135.5Y-103.65
X135.5Y-104.85
X135.5Y-106.05
X135.55Y-96.3
X136.05Y-97.8
X136.1Y-98.65
X136.25Y-114.7
X136.9Y-117.05
X137.175Y-84.075
X137.4Y-111.8
X137.5Y-105.95
X137.5Y-130.0
X137.7Y-99.35
X137.7Y-100.45
X138.0Y-87.75
X138.6Y-78.95
X138.6Y-80.05
X139.0Y-130.0
X139.25Y-78.4
X139.25Y-79.5
X139.25Y-80.6
X140.35Y-76.9
X140.4Y-63.0
X140.5Y-130.0
X141.15Y-84.25
X141.15Y-85.1
X141.2Y-63.0
X142.0Y-58.4
X142.0Y-130.0
X142.8Y-58.4
X143.5Y-130.0
X143.6Y-63.0
X144.25Y-87.0
X144.4Y-63.0
X144.6Y-101.2
X144.75Y-95.25
X144.8Y-103.8
X145.0Y-72.0
X145.0Y-73.2
X145.0Y-105.0
X145.0Y-106.0
X145.0Y-114.8
X145.0Y-130.0
X145.2Y-58.4
X145.2Y-112.8
X145.2Y-113.8
X145.4Y-107.0
X145.4Y-108.6
X145.4Y-110.8
X145.8Y-72.6
X145.8Y-73.8
X146.0Y-58.4
X146.5Y-130.0
X146.6Y-73.2
X146.8Y-63.0
X147.1Y-81.5
X147.4Y-117.0
X147.6Y-63.0
X147.6Y-71.2
X147.8Y-100.0
X148.0Y-95.75
X148.0Y-96.5
X148.4Y-58.4
X149.2Y-58.4
X150.0Y-63.0
X150.8Y-63.0
X151.6Y-58.4
X151.6Y-69.5
X152.4Y-58.4
X152.4Y-69.5
X153.2Y-63.0
X153.3Y-86.6
X154.0Y-63.0
X154.8Y-58.4
X154.8Y-69.5
X155.0Y-130.0
X155.6Y-58.4
X155.6Y-69.5
X156.0Y-89.25
X156.4Y-63.0
X156.5Y-130.0
X156.9Y-84.5
X157.05Y-90.45
X157.2Y-63.0
X158.0Y-130.0
X158.05Y-89.25
X159.5Y-130.0
X159.6Y-63.0
X161.0Y-130.0
X162.5Y-130.0
X162.8Y-89.25
X162.9Y-101.45
X163.85Y-90.45
X164.0Y-98.85
X164.0Y-130.0
X164.25Y-86.55
X164.5Y-82.5
X164.5Y-88.05
X164.5Y-91.85
X164.5Y-92.85
X164.5Y-94.05
X164.5Y-95.25
X164.65Y-103.95
X164.7Y-106.4
X166.15Y-100.05
X166.45Y-104.45
X166.75Y-105.25
X166.75Y-106.286
X167.65Y-99.05
X167.7Y-104.85
X169.45Y-100.25
X169.5Y-88.05
X169.5Y-89.25
X169.5Y-90.45
X169.5Y-91.65
X169.5Y-92.85
X169.5Y-94.05
X169.5Y-95.25
X169.5Y-96.45
X169.5Y-97.65
X169.5Y-102.7
X169.55Y-102.0
X170.9Y-106.2
X173.8Y-106.2
T4
X111.75Y-58.75
X111.75Y-60.0
X111.75Y-61.25
X111.75Y-62.5
X111.75Y-63.75
X111.75Y-65.0
X111.75Y-66.25
X111.75Y-67.5
X111.75Y-68.75
X111.75Y-70.0
X111.75Y-71.25
X111.75Y-72.5
X111.75Y-73.75
X111.75Y-75.0
X111.75Y-76.25
X111.75Y-77.5
X111.75Y-78.75
X111.75Y-80.0
X111.75Y-81.25
X111.75Y-82.5
X111.75Y-125.0
X111.75Y-126.25
X111.75Y-127.5
X111.75Y-128.75
X111.75Y-130.0
X111.75Y-131.25
X111.75Y-132.5
X111.75Y-133.75
X112.5Y-58.0
X112.5Y-134.5
X113.75Y-58.0
X113.75Y-134.5
X115.0Y-58.0
X115.0Y-134.5
X115.5Y-92.5
X116.25Y-58.0
X116.25Y-134.5
X117.5Y-58.0
X117.5Y-134.5
X118.75Y-58.0
X118.75Y-134.5
X120.0Y-58.0
X120.0Y-134.5
X120.55Y-90.2
X121.25Y-58.0
X121.25Y-134.5
X121.75Y-77.3
X122.0Y-71.05
X122.5Y-58.0
X122.5Y-134.5
X122.8Y-67.5
X122.93Y-95.4
X123.75Y-58.0
X123.75Y-134.5
X125.0Y-58.0
X125.0Y-134.5
X125.237Y-133.55
X125.875Y-100.375
X126.0Y-106.35
X126.25Y-58.0
X126.25Y-134.5
X126.812Y-133.55
X127.5Y-58.0
X127.5Y-134.5
X128.15Y-71.05
X128.75Y-58.0
X128.75Y-134.5
X129.25Y-106.25
X129.25Y-109.25
X129.85Y-110.4
X130.0Y-58.0
X130.0Y-134.5
X130.5Y-107.5
X131.25Y-58.0
X131.25Y-134.5
X131.75Y-106.9
X131.75Y-108.25
X131.85Y-79.05
X132.5Y-58.0
X132.5Y-134.5
X133.75Y-58.0
X133.75Y-134.5
X133.85Y-109.3
X134.25Y-107.25
X135.0Y-58.0
X135.0Y-134.5
X135.45Y-126.95
X136.25Y-134.5
X137.36Y-107.99
X137.5Y-134.5
X138.75Y-134.5
X140.0Y-134.5
X141.25Y-134.5
X142.25Y-76.75
X142.5Y-134.5
X143.5Y-78.25
X143.5Y-80.5
X143.75Y-134.5
X145.0Y-134.5
X146.25Y-134.5
X147.5Y-134.5
X147.85Y-93.3
X148.75Y-134.5
X149.35Y-84.4
X149.5Y-126.55
X149.6Y-94.95
X149.8Y-92.3
X150.0Y-134.5
X151.25Y-134.5
X151.6Y-110.8
X151.95Y-92.45
X152.1Y-84.4
X152.2Y-110.2
X152.2Y-111.4
X152.5Y-134.5
X152.8Y-110.8
X152.9Y-127.2
X153.6Y-94.5
X153.75Y-134.5
X154.2Y-93.9
X154.2Y-95.1
X154.8Y-94.5
X155.0Y-134.5
X156.25Y-134.5
X156.35Y-91.85
X157.5Y-134.5
X158.75Y-65.5
X158.75Y-66.7
X158.75Y-67.9
X158.75Y-69.1
X158.75Y-134.5
X159.35Y-66.1
X159.35Y-67.3
X159.35Y-68.5
X159.95Y-65.5
X159.95Y-66.7
X159.95Y-67.9
X159.95Y-69.1
X160.0Y-134.5
X161.25Y-134.5
X162.5Y-134.5
X163.75Y-134.5
X165.0Y-58.0
X165.0Y-134.5
X166.25Y-58.0
X166.25Y-134.5
X167.5Y-58.0
X167.5Y-134.5
X168.75Y-58.0
X168.75Y-134.5
X170.0Y-58.0
X170.0Y-134.5
X171.25Y-58.0
X171.25Y-134.5
X172.5Y-58.0
X172.5Y-134.5
X173.75Y-58.0
X173.75Y-134.5
X175.0Y-58.0
X175.0Y-134.5
X176.25Y-58.0
X176.25Y-134.5
X177.5Y-58.0
X177.5Y-134.5
X178.75Y-58.0
X178.75Y-134.5
X180.0Y-58.0
X180.0Y-134.5
X181.25Y-58.0
X181.25Y-134.5
X182.5Y-58.0
X182.5Y-134.5
X183.75Y-58.0
X183.75Y-134.5
X185.0Y-58.0
X185.0Y-134.5
X186.25Y-58.0
X186.25Y-134.5
X187.5Y-58.0
X187.5Y-134.5
X188.25Y-58.75
X188.25Y-60.0
X188.25Y-61.25
X188.25Y-62.5
X188.25Y-63.75
X188.25Y-65.0
X188.25Y-66.25
X188.25Y-67.5
X188.25Y-68.75
X188.25Y-70.0
X188.25Y-71.25
X188.25Y-72.5
X188.25Y-73.75
X188.25Y-75.0
X188.25Y-76.25
X188.25Y-77.5
X188.25Y-78.75
X188.25Y-80.0
X188.25Y-81.25
X188.25Y-82.5
X188.25Y-125.0
X188.25Y-126.25
X188.25Y-127.5
X188.25Y-128.75
X188.25Y-130.0
X188.25Y-131.25
X188.25Y-132.5
X188.25Y-133.75
T5
X137.0Y-59.04
X163.0Y-59.04
T6
X136.375Y-64.82
X163.625Y-64.82
T7
X180.173Y-105.0
M30
