%TF.GenerationSoftware,KiCad,Pcbnew,9.0.5*%
%TF.CreationDate,2026-01-14T21:12:50-08:00*%
%TF.ProjectId,CUTIE-CITRUS,43555449-452d-4434-9954-5255532e6b69,rev?*%
%TF.SameCoordinates,Original*%
%TF.FileFunction,Paste,Bot*%
%TF.FilePolarity,Positive*%
%FSLAX46Y46*%
G04 Gerber Fmt 4.6, Leading zero omitted, Abs format (unit mm)*
G04 Created by KiCad (PCBNEW 9.0.5) date 2026-01-14 21:12:50*
%MOMM*%
%LPD*%
G01*
G04 APERTURE LIST*
%ADD10R,0.700000X0.200000*%
G04 APERTURE END LIST*
D10*
%TO.C,CM5*%
X131460000Y-106050000D03*
X134540000Y-106050000D03*
X131460000Y-105650000D03*
X134540000Y-105650000D03*
X131460000Y-105250000D03*
X134540000Y-105250000D03*
X131460000Y-104850000D03*
X134540000Y-104850000D03*
X131460000Y-104450000D03*
X134540000Y-104450000D03*
X131460000Y-104050000D03*
X134540000Y-104050000D03*
X131460000Y-103650000D03*
X134540000Y-103650000D03*
X131460000Y-103250000D03*
X134540000Y-103250000D03*
X131460000Y-102850000D03*
X134540000Y-102850000D03*
X131460000Y-102450000D03*
X134540000Y-102450000D03*
X131460000Y-102050000D03*
X134540000Y-102050000D03*
X131460000Y-101650000D03*
X134540000Y-101650000D03*
X131460000Y-101250000D03*
X134540000Y-101250000D03*
X131460000Y-100850000D03*
X134540000Y-100850000D03*
X131460000Y-100450000D03*
X134540000Y-100450000D03*
X131460000Y-100050000D03*
X134540000Y-100050000D03*
X131460000Y-99650000D03*
X134540000Y-99650000D03*
X131460000Y-99250000D03*
X134540000Y-99250000D03*
X131460000Y-98850000D03*
X134540000Y-98850000D03*
X131460000Y-98450000D03*
X134540000Y-98450000D03*
X131460000Y-98050000D03*
X134540000Y-98050000D03*
X131460000Y-97650000D03*
X134540000Y-97650000D03*
X131460000Y-97250000D03*
X134540000Y-97250000D03*
X131460000Y-96850000D03*
X134540000Y-96850000D03*
X131460000Y-96450000D03*
X134540000Y-96450000D03*
X131460000Y-96050000D03*
X134540000Y-96050000D03*
X131460000Y-95650000D03*
X134540000Y-95650000D03*
X131460000Y-95250000D03*
X134540000Y-95250000D03*
X131460000Y-94850000D03*
X134540000Y-94850000D03*
X131460000Y-94450000D03*
X134540000Y-94450000D03*
X131460000Y-94050000D03*
X134540000Y-94050000D03*
X131460000Y-93650000D03*
X134540000Y-93650000D03*
X131460000Y-93250000D03*
X134540000Y-93250000D03*
X131460000Y-92850000D03*
X134540000Y-92850000D03*
X131460000Y-92450000D03*
X134540000Y-92450000D03*
X131460000Y-92050000D03*
X134540000Y-92050000D03*
X131460000Y-91650000D03*
X134540000Y-91650000D03*
X131460000Y-91250000D03*
X134540000Y-91250000D03*
X131460000Y-90850000D03*
X134540000Y-90850000D03*
X131460000Y-90450000D03*
X134540000Y-90450000D03*
X131460000Y-90050000D03*
X134540000Y-90050000D03*
X131460000Y-89650000D03*
X134540000Y-89650000D03*
X131460000Y-89250000D03*
X134540000Y-89250000D03*
X131460000Y-88850000D03*
X134540000Y-88850000D03*
X131460000Y-88450000D03*
X134540000Y-88450000D03*
X131460000Y-88050000D03*
X134540000Y-88050000D03*
X131460000Y-87650000D03*
X134540000Y-87650000D03*
X131460000Y-87250000D03*
X134540000Y-87250000D03*
X131460000Y-86850000D03*
X134540000Y-86850000D03*
X131460000Y-86450000D03*
X134540000Y-86450000D03*
X165460000Y-106050000D03*
X168540000Y-106050000D03*
X165460000Y-105650000D03*
X168540000Y-105650000D03*
X165460000Y-105250000D03*
X168540000Y-105250000D03*
X165460000Y-104850000D03*
X168540000Y-104850000D03*
X165460000Y-104450000D03*
X168540000Y-104450000D03*
X165460000Y-104050000D03*
X168540000Y-104050000D03*
X165460000Y-103650000D03*
X168540000Y-103650000D03*
X165460000Y-103250000D03*
X168540000Y-103250000D03*
X165460000Y-102850000D03*
X168540000Y-102850000D03*
X165460000Y-102450000D03*
X168540000Y-102450000D03*
X165460000Y-102050000D03*
X168540000Y-102050000D03*
X165460000Y-101650000D03*
X168540000Y-101650000D03*
X165460000Y-101250000D03*
X168540000Y-101250000D03*
X165460000Y-100850000D03*
X168540000Y-100850000D03*
X165460000Y-100450000D03*
X168540000Y-100450000D03*
X165460000Y-100050000D03*
X168540000Y-100050000D03*
X165460000Y-99650000D03*
X168540000Y-99650000D03*
X165460000Y-99250000D03*
X168540000Y-99250000D03*
X165460000Y-98850000D03*
X168540000Y-98850000D03*
X165460000Y-98450000D03*
X168540000Y-98450000D03*
X165460000Y-98050000D03*
X168540000Y-98050000D03*
X165460000Y-97650000D03*
X168540000Y-97650000D03*
X165460000Y-97250000D03*
X168540000Y-97250000D03*
X165460000Y-96850000D03*
X168540000Y-96850000D03*
X165460000Y-96450000D03*
X168540000Y-96450000D03*
X165460000Y-96050000D03*
X168540000Y-96050000D03*
X165460000Y-95650000D03*
X168540000Y-95650000D03*
X165460000Y-95250000D03*
X168540000Y-95250000D03*
X165460000Y-94850000D03*
X168540000Y-94850000D03*
X165460000Y-94450000D03*
X168540000Y-94450000D03*
X165460000Y-94050000D03*
X168540000Y-94050000D03*
X165460000Y-93650000D03*
X168540000Y-93650000D03*
X165460000Y-93250000D03*
X168540000Y-93250000D03*
X165460000Y-92850000D03*
X168540000Y-92850000D03*
X165460000Y-92450000D03*
X168540000Y-92450000D03*
X165460000Y-92050000D03*
X168540000Y-92050000D03*
X165460000Y-91650000D03*
X168540000Y-91650000D03*
X165460000Y-91250000D03*
X168540000Y-91250000D03*
X165460000Y-90850000D03*
X168540000Y-90850000D03*
X165460000Y-90450000D03*
X168540000Y-90450000D03*
X165460000Y-90050000D03*
X168540000Y-90050000D03*
X165460000Y-89650000D03*
X168540000Y-89650000D03*
X165460000Y-89250000D03*
X168540000Y-89250000D03*
X165460000Y-88850000D03*
X168540000Y-88850000D03*
X165460000Y-88450000D03*
X168540000Y-88450000D03*
X165460000Y-88050000D03*
X168540000Y-88050000D03*
X165460000Y-87650000D03*
X168540000Y-87650000D03*
X165460000Y-87250000D03*
X168540000Y-87250000D03*
X165460000Y-86850000D03*
X168540000Y-86850000D03*
X165460000Y-86450000D03*
X168540000Y-86450000D03*
%TD*%
M02*
