%TF.GenerationSoftware,KiCad,Pcbnew,9.0.5*%
%TF.CreationDate,2026-01-14T21:12:55-08:00*%
%TF.ProjectId,CUTIE-CITRUS,43555449-452d-4434-9954-5255532e6b69,rev?*%
%TF.SameCoordinates,Original*%
%TF.FileFunction,Drillmap*%
%TF.FilePolarity,Positive*%
%FSLAX45Y45*%
G04 Gerber Fmt 4.5, Leading zero omitted, Abs format (unit mm)*
G04 Created by KiCad (PCBNEW 9.0.5) date 2026-01-14 21:12:55*
%MOMM*%
%LPD*%
G01*
G04 APERTURE LIST*
%ADD10C,0.250000*%
%ADD11C,0.200000*%
%ADD12C,0.115000*%
%ADD13C,0.145000*%
%ADD14C,0.165000*%
%ADD15C,0.270000*%
G04 APERTURE END LIST*
D10*
X18925000Y-13350000D02*
G75*
G02*
X18725000Y-13550000I-200000J0D01*
G01*
X18717500Y-13175000D02*
G75*
G02*
X18382500Y-13175000I-167500J0D01*
G01*
X18382500Y-13175000D02*
G75*
G02*
X18717500Y-13175000I167500J0D01*
G01*
X18925000Y-13350000D02*
X18925000Y-5900000D01*
X11075000Y-5900000D02*
X11075000Y-13350000D01*
X11275000Y-13550000D02*
X18725000Y-13550000D01*
X11275000Y-13550000D02*
G75*
G02*
X11075000Y-13350000I0J200000D01*
G01*
X18725000Y-5700000D02*
X11275000Y-5700000D01*
X11617500Y-6075000D02*
G75*
G02*
X11282500Y-6075000I-167500J0D01*
G01*
X11282500Y-6075000D02*
G75*
G02*
X11617500Y-6075000I167500J0D01*
G01*
X11075000Y-5900000D02*
G75*
G02*
X11275000Y-5700000I200000J0D01*
G01*
X11617500Y-13175000D02*
G75*
G02*
X11282500Y-13175000I-167500J0D01*
G01*
X11282500Y-13175000D02*
G75*
G02*
X11617500Y-13175000I167500J0D01*
G01*
X18725000Y-5700000D02*
G75*
G02*
X18925000Y-5900000I0J-200000D01*
G01*
X18717500Y-6075000D02*
G75*
G02*
X18382500Y-6075000I-167500J0D01*
G01*
X18382500Y-6075000D02*
G75*
G02*
X18717500Y-6075000I167500J0D01*
G01*
D11*
D12*
X15134800Y-11442500D02*
X15249800Y-11557500D01*
X15249800Y-11442500D02*
X15134800Y-11557500D01*
D13*
X13710000Y-6082000D02*
G75*
G02*
X13565000Y-6082000I-72500J0D01*
G01*
X13565000Y-6082000D02*
G75*
G02*
X13710000Y-6082000I72500J0D01*
G01*
X16435000Y-6082000D02*
G75*
G02*
X16290000Y-6082000I-72500J0D01*
G01*
X16290000Y-6082000D02*
G75*
G02*
X16435000Y-6082000I72500J0D01*
G01*
D14*
X15192300Y-9417500D02*
X15192300Y-9582500D01*
X15109800Y-9500000D02*
X15274800Y-9500000D01*
D15*
X13445460Y-7570460D02*
X13445460Y-7379540D01*
X13254540Y-7379540D01*
X13254540Y-7570460D01*
X13445460Y-7570460D01*
X13445460Y-12370460D02*
X13445460Y-12179540D01*
X13254540Y-12179540D01*
X13254540Y-12370460D01*
X13445460Y-12370460D01*
X16745460Y-7570460D02*
X16745460Y-7379540D01*
X16554540Y-7379540D01*
X16554540Y-7570460D01*
X16745460Y-7570460D01*
X16745460Y-12370460D02*
X16745460Y-12179540D01*
X16554540Y-12179540D01*
X16554540Y-12370460D01*
X16745460Y-12370460D01*
D11*
X11323277Y-13873984D02*
X11323277Y-13673984D01*
X11323277Y-13673984D02*
X11370896Y-13673984D01*
X11370896Y-13673984D02*
X11399467Y-13683508D01*
X11399467Y-13683508D02*
X11418515Y-13702555D01*
X11418515Y-13702555D02*
X11428039Y-13721603D01*
X11428039Y-13721603D02*
X11437563Y-13759698D01*
X11437563Y-13759698D02*
X11437563Y-13788269D01*
X11437563Y-13788269D02*
X11428039Y-13826365D01*
X11428039Y-13826365D02*
X11418515Y-13845412D01*
X11418515Y-13845412D02*
X11399467Y-13864460D01*
X11399467Y-13864460D02*
X11370896Y-13873984D01*
X11370896Y-13873984D02*
X11323277Y-13873984D01*
X11523277Y-13873984D02*
X11523277Y-13740650D01*
X11523277Y-13778746D02*
X11532801Y-13759698D01*
X11532801Y-13759698D02*
X11542324Y-13750174D01*
X11542324Y-13750174D02*
X11561372Y-13740650D01*
X11561372Y-13740650D02*
X11580420Y-13740650D01*
X11647086Y-13873984D02*
X11647086Y-13740650D01*
X11647086Y-13673984D02*
X11637563Y-13683508D01*
X11637563Y-13683508D02*
X11647086Y-13693031D01*
X11647086Y-13693031D02*
X11656610Y-13683508D01*
X11656610Y-13683508D02*
X11647086Y-13673984D01*
X11647086Y-13673984D02*
X11647086Y-13693031D01*
X11770896Y-13873984D02*
X11751848Y-13864460D01*
X11751848Y-13864460D02*
X11742324Y-13845412D01*
X11742324Y-13845412D02*
X11742324Y-13673984D01*
X11875658Y-13873984D02*
X11856610Y-13864460D01*
X11856610Y-13864460D02*
X11847086Y-13845412D01*
X11847086Y-13845412D02*
X11847086Y-13673984D01*
X12104229Y-13873984D02*
X12104229Y-13673984D01*
X12104229Y-13673984D02*
X12170896Y-13816841D01*
X12170896Y-13816841D02*
X12237563Y-13673984D01*
X12237563Y-13673984D02*
X12237563Y-13873984D01*
X12418515Y-13873984D02*
X12418515Y-13769222D01*
X12418515Y-13769222D02*
X12408991Y-13750174D01*
X12408991Y-13750174D02*
X12389944Y-13740650D01*
X12389944Y-13740650D02*
X12351848Y-13740650D01*
X12351848Y-13740650D02*
X12332801Y-13750174D01*
X12418515Y-13864460D02*
X12399467Y-13873984D01*
X12399467Y-13873984D02*
X12351848Y-13873984D01*
X12351848Y-13873984D02*
X12332801Y-13864460D01*
X12332801Y-13864460D02*
X12323277Y-13845412D01*
X12323277Y-13845412D02*
X12323277Y-13826365D01*
X12323277Y-13826365D02*
X12332801Y-13807317D01*
X12332801Y-13807317D02*
X12351848Y-13797793D01*
X12351848Y-13797793D02*
X12399467Y-13797793D01*
X12399467Y-13797793D02*
X12418515Y-13788269D01*
X12513753Y-13740650D02*
X12513753Y-13940650D01*
X12513753Y-13750174D02*
X12532801Y-13740650D01*
X12532801Y-13740650D02*
X12570896Y-13740650D01*
X12570896Y-13740650D02*
X12589944Y-13750174D01*
X12589944Y-13750174D02*
X12599467Y-13759698D01*
X12599467Y-13759698D02*
X12608991Y-13778746D01*
X12608991Y-13778746D02*
X12608991Y-13835888D01*
X12608991Y-13835888D02*
X12599467Y-13854936D01*
X12599467Y-13854936D02*
X12589944Y-13864460D01*
X12589944Y-13864460D02*
X12570896Y-13873984D01*
X12570896Y-13873984D02*
X12532801Y-13873984D01*
X12532801Y-13873984D02*
X12513753Y-13864460D01*
X12694705Y-13854936D02*
X12704229Y-13864460D01*
X12704229Y-13864460D02*
X12694705Y-13873984D01*
X12694705Y-13873984D02*
X12685182Y-13864460D01*
X12685182Y-13864460D02*
X12694705Y-13854936D01*
X12694705Y-13854936D02*
X12694705Y-13873984D01*
X12694705Y-13750174D02*
X12704229Y-13759698D01*
X12704229Y-13759698D02*
X12694705Y-13769222D01*
X12694705Y-13769222D02*
X12685182Y-13759698D01*
X12685182Y-13759698D02*
X12694705Y-13750174D01*
X12694705Y-13750174D02*
X12694705Y-13769222D01*
D12*
X10947500Y-14145000D02*
X11062500Y-14260000D01*
X11062500Y-14145000D02*
X10947500Y-14260000D01*
D11*
X11428039Y-14293984D02*
X11313753Y-14293984D01*
X11370896Y-14293984D02*
X11370896Y-14093984D01*
X11370896Y-14093984D02*
X11351848Y-14122555D01*
X11351848Y-14122555D02*
X11332801Y-14141603D01*
X11332801Y-14141603D02*
X11313753Y-14151127D01*
X11513753Y-14274936D02*
X11523277Y-14284460D01*
X11523277Y-14284460D02*
X11513753Y-14293984D01*
X11513753Y-14293984D02*
X11504229Y-14284460D01*
X11504229Y-14284460D02*
X11513753Y-14274936D01*
X11513753Y-14274936D02*
X11513753Y-14293984D01*
X11713753Y-14293984D02*
X11599467Y-14293984D01*
X11656610Y-14293984D02*
X11656610Y-14093984D01*
X11656610Y-14093984D02*
X11637563Y-14122555D01*
X11637563Y-14122555D02*
X11618515Y-14141603D01*
X11618515Y-14141603D02*
X11599467Y-14151127D01*
X11894705Y-14093984D02*
X11799467Y-14093984D01*
X11799467Y-14093984D02*
X11789944Y-14189222D01*
X11789944Y-14189222D02*
X11799467Y-14179698D01*
X11799467Y-14179698D02*
X11818515Y-14170174D01*
X11818515Y-14170174D02*
X11866134Y-14170174D01*
X11866134Y-14170174D02*
X11885182Y-14179698D01*
X11885182Y-14179698D02*
X11894705Y-14189222D01*
X11894705Y-14189222D02*
X11904229Y-14208269D01*
X11904229Y-14208269D02*
X11904229Y-14255888D01*
X11904229Y-14255888D02*
X11894705Y-14274936D01*
X11894705Y-14274936D02*
X11885182Y-14284460D01*
X11885182Y-14284460D02*
X11866134Y-14293984D01*
X11866134Y-14293984D02*
X11818515Y-14293984D01*
X11818515Y-14293984D02*
X11799467Y-14284460D01*
X11799467Y-14284460D02*
X11789944Y-14274936D01*
X12028039Y-14093984D02*
X12047086Y-14093984D01*
X12047086Y-14093984D02*
X12066134Y-14103508D01*
X12066134Y-14103508D02*
X12075658Y-14113031D01*
X12075658Y-14113031D02*
X12085182Y-14132079D01*
X12085182Y-14132079D02*
X12094705Y-14170174D01*
X12094705Y-14170174D02*
X12094705Y-14217793D01*
X12094705Y-14217793D02*
X12085182Y-14255888D01*
X12085182Y-14255888D02*
X12075658Y-14274936D01*
X12075658Y-14274936D02*
X12066134Y-14284460D01*
X12066134Y-14284460D02*
X12047086Y-14293984D01*
X12047086Y-14293984D02*
X12028039Y-14293984D01*
X12028039Y-14293984D02*
X12008991Y-14284460D01*
X12008991Y-14284460D02*
X11999467Y-14274936D01*
X11999467Y-14274936D02*
X11989944Y-14255888D01*
X11989944Y-14255888D02*
X11980420Y-14217793D01*
X11980420Y-14217793D02*
X11980420Y-14170174D01*
X11980420Y-14170174D02*
X11989944Y-14132079D01*
X11989944Y-14132079D02*
X11999467Y-14113031D01*
X11999467Y-14113031D02*
X12008991Y-14103508D01*
X12008991Y-14103508D02*
X12028039Y-14093984D01*
X12180420Y-14293984D02*
X12180420Y-14160650D01*
X12180420Y-14179698D02*
X12189944Y-14170174D01*
X12189944Y-14170174D02*
X12208991Y-14160650D01*
X12208991Y-14160650D02*
X12237563Y-14160650D01*
X12237563Y-14160650D02*
X12256610Y-14170174D01*
X12256610Y-14170174D02*
X12266134Y-14189222D01*
X12266134Y-14189222D02*
X12266134Y-14293984D01*
X12266134Y-14189222D02*
X12275658Y-14170174D01*
X12275658Y-14170174D02*
X12294705Y-14160650D01*
X12294705Y-14160650D02*
X12323277Y-14160650D01*
X12323277Y-14160650D02*
X12342325Y-14170174D01*
X12342325Y-14170174D02*
X12351848Y-14189222D01*
X12351848Y-14189222D02*
X12351848Y-14293984D01*
X12447086Y-14293984D02*
X12447086Y-14160650D01*
X12447086Y-14179698D02*
X12456610Y-14170174D01*
X12456610Y-14170174D02*
X12475658Y-14160650D01*
X12475658Y-14160650D02*
X12504229Y-14160650D01*
X12504229Y-14160650D02*
X12523277Y-14170174D01*
X12523277Y-14170174D02*
X12532801Y-14189222D01*
X12532801Y-14189222D02*
X12532801Y-14293984D01*
X12532801Y-14189222D02*
X12542325Y-14170174D01*
X12542325Y-14170174D02*
X12561372Y-14160650D01*
X12561372Y-14160650D02*
X12589944Y-14160650D01*
X12589944Y-14160650D02*
X12608991Y-14170174D01*
X12608991Y-14170174D02*
X12618515Y-14189222D01*
X12618515Y-14189222D02*
X12618515Y-14293984D01*
X13008991Y-14084460D02*
X12837563Y-14341603D01*
X13266134Y-14093984D02*
X13285182Y-14093984D01*
X13285182Y-14093984D02*
X13304229Y-14103508D01*
X13304229Y-14103508D02*
X13313753Y-14113031D01*
X13313753Y-14113031D02*
X13323277Y-14132079D01*
X13323277Y-14132079D02*
X13332801Y-14170174D01*
X13332801Y-14170174D02*
X13332801Y-14217793D01*
X13332801Y-14217793D02*
X13323277Y-14255888D01*
X13323277Y-14255888D02*
X13313753Y-14274936D01*
X13313753Y-14274936D02*
X13304229Y-14284460D01*
X13304229Y-14284460D02*
X13285182Y-14293984D01*
X13285182Y-14293984D02*
X13266134Y-14293984D01*
X13266134Y-14293984D02*
X13247087Y-14284460D01*
X13247087Y-14284460D02*
X13237563Y-14274936D01*
X13237563Y-14274936D02*
X13228039Y-14255888D01*
X13228039Y-14255888D02*
X13218515Y-14217793D01*
X13218515Y-14217793D02*
X13218515Y-14170174D01*
X13218515Y-14170174D02*
X13228039Y-14132079D01*
X13228039Y-14132079D02*
X13237563Y-14113031D01*
X13237563Y-14113031D02*
X13247087Y-14103508D01*
X13247087Y-14103508D02*
X13266134Y-14093984D01*
X13418515Y-14274936D02*
X13428039Y-14284460D01*
X13428039Y-14284460D02*
X13418515Y-14293984D01*
X13418515Y-14293984D02*
X13408991Y-14284460D01*
X13408991Y-14284460D02*
X13418515Y-14274936D01*
X13418515Y-14274936D02*
X13418515Y-14293984D01*
X13551848Y-14093984D02*
X13570896Y-14093984D01*
X13570896Y-14093984D02*
X13589944Y-14103508D01*
X13589944Y-14103508D02*
X13599468Y-14113031D01*
X13599468Y-14113031D02*
X13608991Y-14132079D01*
X13608991Y-14132079D02*
X13618515Y-14170174D01*
X13618515Y-14170174D02*
X13618515Y-14217793D01*
X13618515Y-14217793D02*
X13608991Y-14255888D01*
X13608991Y-14255888D02*
X13599468Y-14274936D01*
X13599468Y-14274936D02*
X13589944Y-14284460D01*
X13589944Y-14284460D02*
X13570896Y-14293984D01*
X13570896Y-14293984D02*
X13551848Y-14293984D01*
X13551848Y-14293984D02*
X13532801Y-14284460D01*
X13532801Y-14284460D02*
X13523277Y-14274936D01*
X13523277Y-14274936D02*
X13513753Y-14255888D01*
X13513753Y-14255888D02*
X13504229Y-14217793D01*
X13504229Y-14217793D02*
X13504229Y-14170174D01*
X13504229Y-14170174D02*
X13513753Y-14132079D01*
X13513753Y-14132079D02*
X13523277Y-14113031D01*
X13523277Y-14113031D02*
X13532801Y-14103508D01*
X13532801Y-14103508D02*
X13551848Y-14093984D01*
X13789944Y-14160650D02*
X13789944Y-14293984D01*
X13742325Y-14084460D02*
X13694706Y-14227317D01*
X13694706Y-14227317D02*
X13818515Y-14227317D01*
X13989944Y-14093984D02*
X13894706Y-14093984D01*
X13894706Y-14093984D02*
X13885182Y-14189222D01*
X13885182Y-14189222D02*
X13894706Y-14179698D01*
X13894706Y-14179698D02*
X13913753Y-14170174D01*
X13913753Y-14170174D02*
X13961372Y-14170174D01*
X13961372Y-14170174D02*
X13980420Y-14179698D01*
X13980420Y-14179698D02*
X13989944Y-14189222D01*
X13989944Y-14189222D02*
X13999468Y-14208269D01*
X13999468Y-14208269D02*
X13999468Y-14255888D01*
X13999468Y-14255888D02*
X13989944Y-14274936D01*
X13989944Y-14274936D02*
X13980420Y-14284460D01*
X13980420Y-14284460D02*
X13961372Y-14293984D01*
X13961372Y-14293984D02*
X13913753Y-14293984D01*
X13913753Y-14293984D02*
X13894706Y-14284460D01*
X13894706Y-14284460D02*
X13885182Y-14274936D01*
X14066134Y-14093984D02*
X14189944Y-14093984D01*
X14189944Y-14093984D02*
X14123277Y-14170174D01*
X14123277Y-14170174D02*
X14151849Y-14170174D01*
X14151849Y-14170174D02*
X14170896Y-14179698D01*
X14170896Y-14179698D02*
X14180420Y-14189222D01*
X14180420Y-14189222D02*
X14189944Y-14208269D01*
X14189944Y-14208269D02*
X14189944Y-14255888D01*
X14189944Y-14255888D02*
X14180420Y-14274936D01*
X14180420Y-14274936D02*
X14170896Y-14284460D01*
X14170896Y-14284460D02*
X14151849Y-14293984D01*
X14151849Y-14293984D02*
X14094706Y-14293984D01*
X14094706Y-14293984D02*
X14075658Y-14284460D01*
X14075658Y-14284460D02*
X14066134Y-14274936D01*
X14266134Y-14093984D02*
X14266134Y-14132079D01*
X14342325Y-14093984D02*
X14342325Y-14132079D01*
X14637563Y-14370174D02*
X14628039Y-14360650D01*
X14628039Y-14360650D02*
X14608991Y-14332079D01*
X14608991Y-14332079D02*
X14599468Y-14313031D01*
X14599468Y-14313031D02*
X14589944Y-14284460D01*
X14589944Y-14284460D02*
X14580420Y-14236841D01*
X14580420Y-14236841D02*
X14580420Y-14198746D01*
X14580420Y-14198746D02*
X14589944Y-14151127D01*
X14589944Y-14151127D02*
X14599468Y-14122555D01*
X14599468Y-14122555D02*
X14608991Y-14103508D01*
X14608991Y-14103508D02*
X14628039Y-14074936D01*
X14628039Y-14074936D02*
X14637563Y-14065412D01*
X14818515Y-14293984D02*
X14704230Y-14293984D01*
X14761372Y-14293984D02*
X14761372Y-14093984D01*
X14761372Y-14093984D02*
X14742325Y-14122555D01*
X14742325Y-14122555D02*
X14723277Y-14141603D01*
X14723277Y-14141603D02*
X14704230Y-14151127D01*
X15056611Y-14293984D02*
X15056611Y-14093984D01*
X15142325Y-14293984D02*
X15142325Y-14189222D01*
X15142325Y-14189222D02*
X15132801Y-14170174D01*
X15132801Y-14170174D02*
X15113753Y-14160650D01*
X15113753Y-14160650D02*
X15085182Y-14160650D01*
X15085182Y-14160650D02*
X15066134Y-14170174D01*
X15066134Y-14170174D02*
X15056611Y-14179698D01*
X15266134Y-14293984D02*
X15247087Y-14284460D01*
X15247087Y-14284460D02*
X15237563Y-14274936D01*
X15237563Y-14274936D02*
X15228039Y-14255888D01*
X15228039Y-14255888D02*
X15228039Y-14198746D01*
X15228039Y-14198746D02*
X15237563Y-14179698D01*
X15237563Y-14179698D02*
X15247087Y-14170174D01*
X15247087Y-14170174D02*
X15266134Y-14160650D01*
X15266134Y-14160650D02*
X15294706Y-14160650D01*
X15294706Y-14160650D02*
X15313753Y-14170174D01*
X15313753Y-14170174D02*
X15323277Y-14179698D01*
X15323277Y-14179698D02*
X15332801Y-14198746D01*
X15332801Y-14198746D02*
X15332801Y-14255888D01*
X15332801Y-14255888D02*
X15323277Y-14274936D01*
X15323277Y-14274936D02*
X15313753Y-14284460D01*
X15313753Y-14284460D02*
X15294706Y-14293984D01*
X15294706Y-14293984D02*
X15266134Y-14293984D01*
X15447087Y-14293984D02*
X15428039Y-14284460D01*
X15428039Y-14284460D02*
X15418515Y-14265412D01*
X15418515Y-14265412D02*
X15418515Y-14093984D01*
X15599468Y-14284460D02*
X15580420Y-14293984D01*
X15580420Y-14293984D02*
X15542325Y-14293984D01*
X15542325Y-14293984D02*
X15523277Y-14284460D01*
X15523277Y-14284460D02*
X15513753Y-14265412D01*
X15513753Y-14265412D02*
X15513753Y-14189222D01*
X15513753Y-14189222D02*
X15523277Y-14170174D01*
X15523277Y-14170174D02*
X15542325Y-14160650D01*
X15542325Y-14160650D02*
X15580420Y-14160650D01*
X15580420Y-14160650D02*
X15599468Y-14170174D01*
X15599468Y-14170174D02*
X15608992Y-14189222D01*
X15608992Y-14189222D02*
X15608992Y-14208269D01*
X15608992Y-14208269D02*
X15513753Y-14227317D01*
X15675658Y-14370174D02*
X15685182Y-14360650D01*
X15685182Y-14360650D02*
X15704230Y-14332079D01*
X15704230Y-14332079D02*
X15713753Y-14313031D01*
X15713753Y-14313031D02*
X15723277Y-14284460D01*
X15723277Y-14284460D02*
X15732801Y-14236841D01*
X15732801Y-14236841D02*
X15732801Y-14198746D01*
X15732801Y-14198746D02*
X15723277Y-14151127D01*
X15723277Y-14151127D02*
X15713753Y-14122555D01*
X15713753Y-14122555D02*
X15704230Y-14103508D01*
X15704230Y-14103508D02*
X15685182Y-14074936D01*
X15685182Y-14074936D02*
X15675658Y-14065412D01*
X16037563Y-14370174D02*
X16028039Y-14360650D01*
X16028039Y-14360650D02*
X16008992Y-14332079D01*
X16008992Y-14332079D02*
X15999468Y-14313031D01*
X15999468Y-14313031D02*
X15989944Y-14284460D01*
X15989944Y-14284460D02*
X15980420Y-14236841D01*
X15980420Y-14236841D02*
X15980420Y-14198746D01*
X15980420Y-14198746D02*
X15989944Y-14151127D01*
X15989944Y-14151127D02*
X15999468Y-14122555D01*
X15999468Y-14122555D02*
X16008992Y-14103508D01*
X16008992Y-14103508D02*
X16028039Y-14074936D01*
X16028039Y-14074936D02*
X16037563Y-14065412D01*
X16113753Y-14160650D02*
X16113753Y-14293984D01*
X16113753Y-14179698D02*
X16123277Y-14170174D01*
X16123277Y-14170174D02*
X16142325Y-14160650D01*
X16142325Y-14160650D02*
X16170896Y-14160650D01*
X16170896Y-14160650D02*
X16189944Y-14170174D01*
X16189944Y-14170174D02*
X16199468Y-14189222D01*
X16199468Y-14189222D02*
X16199468Y-14293984D01*
X16323277Y-14293984D02*
X16304230Y-14284460D01*
X16304230Y-14284460D02*
X16294706Y-14274936D01*
X16294706Y-14274936D02*
X16285182Y-14255888D01*
X16285182Y-14255888D02*
X16285182Y-14198746D01*
X16285182Y-14198746D02*
X16294706Y-14179698D01*
X16294706Y-14179698D02*
X16304230Y-14170174D01*
X16304230Y-14170174D02*
X16323277Y-14160650D01*
X16323277Y-14160650D02*
X16351849Y-14160650D01*
X16351849Y-14160650D02*
X16370896Y-14170174D01*
X16370896Y-14170174D02*
X16380420Y-14179698D01*
X16380420Y-14179698D02*
X16389944Y-14198746D01*
X16389944Y-14198746D02*
X16389944Y-14255888D01*
X16389944Y-14255888D02*
X16380420Y-14274936D01*
X16380420Y-14274936D02*
X16370896Y-14284460D01*
X16370896Y-14284460D02*
X16351849Y-14293984D01*
X16351849Y-14293984D02*
X16323277Y-14293984D01*
X16447087Y-14160650D02*
X16523277Y-14160650D01*
X16475658Y-14093984D02*
X16475658Y-14265412D01*
X16475658Y-14265412D02*
X16485182Y-14284460D01*
X16485182Y-14284460D02*
X16504230Y-14293984D01*
X16504230Y-14293984D02*
X16523277Y-14293984D01*
X16742325Y-14160650D02*
X16742325Y-14360650D01*
X16742325Y-14170174D02*
X16761373Y-14160650D01*
X16761373Y-14160650D02*
X16799468Y-14160650D01*
X16799468Y-14160650D02*
X16818516Y-14170174D01*
X16818516Y-14170174D02*
X16828039Y-14179698D01*
X16828039Y-14179698D02*
X16837563Y-14198746D01*
X16837563Y-14198746D02*
X16837563Y-14255888D01*
X16837563Y-14255888D02*
X16828039Y-14274936D01*
X16828039Y-14274936D02*
X16818516Y-14284460D01*
X16818516Y-14284460D02*
X16799468Y-14293984D01*
X16799468Y-14293984D02*
X16761373Y-14293984D01*
X16761373Y-14293984D02*
X16742325Y-14284460D01*
X16951849Y-14293984D02*
X16932801Y-14284460D01*
X16932801Y-14284460D02*
X16923277Y-14265412D01*
X16923277Y-14265412D02*
X16923277Y-14093984D01*
X17113754Y-14293984D02*
X17113754Y-14189222D01*
X17113754Y-14189222D02*
X17104230Y-14170174D01*
X17104230Y-14170174D02*
X17085182Y-14160650D01*
X17085182Y-14160650D02*
X17047087Y-14160650D01*
X17047087Y-14160650D02*
X17028039Y-14170174D01*
X17113754Y-14284460D02*
X17094706Y-14293984D01*
X17094706Y-14293984D02*
X17047087Y-14293984D01*
X17047087Y-14293984D02*
X17028039Y-14284460D01*
X17028039Y-14284460D02*
X17018516Y-14265412D01*
X17018516Y-14265412D02*
X17018516Y-14246365D01*
X17018516Y-14246365D02*
X17028039Y-14227317D01*
X17028039Y-14227317D02*
X17047087Y-14217793D01*
X17047087Y-14217793D02*
X17094706Y-14217793D01*
X17094706Y-14217793D02*
X17113754Y-14208269D01*
X17180420Y-14160650D02*
X17256611Y-14160650D01*
X17208992Y-14093984D02*
X17208992Y-14265412D01*
X17208992Y-14265412D02*
X17218516Y-14284460D01*
X17218516Y-14284460D02*
X17237563Y-14293984D01*
X17237563Y-14293984D02*
X17256611Y-14293984D01*
X17399468Y-14284460D02*
X17380420Y-14293984D01*
X17380420Y-14293984D02*
X17342325Y-14293984D01*
X17342325Y-14293984D02*
X17323277Y-14284460D01*
X17323277Y-14284460D02*
X17313754Y-14265412D01*
X17313754Y-14265412D02*
X17313754Y-14189222D01*
X17313754Y-14189222D02*
X17323277Y-14170174D01*
X17323277Y-14170174D02*
X17342325Y-14160650D01*
X17342325Y-14160650D02*
X17380420Y-14160650D01*
X17380420Y-14160650D02*
X17399468Y-14170174D01*
X17399468Y-14170174D02*
X17408992Y-14189222D01*
X17408992Y-14189222D02*
X17408992Y-14208269D01*
X17408992Y-14208269D02*
X17313754Y-14227317D01*
X17580420Y-14293984D02*
X17580420Y-14093984D01*
X17580420Y-14284460D02*
X17561373Y-14293984D01*
X17561373Y-14293984D02*
X17523277Y-14293984D01*
X17523277Y-14293984D02*
X17504230Y-14284460D01*
X17504230Y-14284460D02*
X17494706Y-14274936D01*
X17494706Y-14274936D02*
X17485182Y-14255888D01*
X17485182Y-14255888D02*
X17485182Y-14198746D01*
X17485182Y-14198746D02*
X17494706Y-14179698D01*
X17494706Y-14179698D02*
X17504230Y-14170174D01*
X17504230Y-14170174D02*
X17523277Y-14160650D01*
X17523277Y-14160650D02*
X17561373Y-14160650D01*
X17561373Y-14160650D02*
X17580420Y-14170174D01*
X17656611Y-14370174D02*
X17666135Y-14360650D01*
X17666135Y-14360650D02*
X17685182Y-14332079D01*
X17685182Y-14332079D02*
X17694706Y-14313031D01*
X17694706Y-14313031D02*
X17704230Y-14284460D01*
X17704230Y-14284460D02*
X17713754Y-14236841D01*
X17713754Y-14236841D02*
X17713754Y-14198746D01*
X17713754Y-14198746D02*
X17704230Y-14151127D01*
X17704230Y-14151127D02*
X17694706Y-14122555D01*
X17694706Y-14122555D02*
X17685182Y-14103508D01*
X17685182Y-14103508D02*
X17666135Y-14074936D01*
X17666135Y-14074936D02*
X17656611Y-14065412D01*
D13*
X11062500Y-14466500D02*
G75*
G02*
X10917500Y-14466500I-72500J0D01*
G01*
X10917500Y-14466500D02*
G75*
G02*
X11062500Y-14466500I72500J0D01*
G01*
D11*
X11428039Y-14557984D02*
X11313753Y-14557984D01*
X11370896Y-14557984D02*
X11370896Y-14357984D01*
X11370896Y-14357984D02*
X11351848Y-14386555D01*
X11351848Y-14386555D02*
X11332801Y-14405603D01*
X11332801Y-14405603D02*
X11313753Y-14415127D01*
X11513753Y-14538936D02*
X11523277Y-14548460D01*
X11523277Y-14548460D02*
X11513753Y-14557984D01*
X11513753Y-14557984D02*
X11504229Y-14548460D01*
X11504229Y-14548460D02*
X11513753Y-14538936D01*
X11513753Y-14538936D02*
X11513753Y-14557984D01*
X11694705Y-14424650D02*
X11694705Y-14557984D01*
X11647086Y-14348460D02*
X11599467Y-14491317D01*
X11599467Y-14491317D02*
X11723277Y-14491317D01*
X11894705Y-14357984D02*
X11799467Y-14357984D01*
X11799467Y-14357984D02*
X11789944Y-14453222D01*
X11789944Y-14453222D02*
X11799467Y-14443698D01*
X11799467Y-14443698D02*
X11818515Y-14434174D01*
X11818515Y-14434174D02*
X11866134Y-14434174D01*
X11866134Y-14434174D02*
X11885182Y-14443698D01*
X11885182Y-14443698D02*
X11894705Y-14453222D01*
X11894705Y-14453222D02*
X11904229Y-14472269D01*
X11904229Y-14472269D02*
X11904229Y-14519888D01*
X11904229Y-14519888D02*
X11894705Y-14538936D01*
X11894705Y-14538936D02*
X11885182Y-14548460D01*
X11885182Y-14548460D02*
X11866134Y-14557984D01*
X11866134Y-14557984D02*
X11818515Y-14557984D01*
X11818515Y-14557984D02*
X11799467Y-14548460D01*
X11799467Y-14548460D02*
X11789944Y-14538936D01*
X12028039Y-14357984D02*
X12047086Y-14357984D01*
X12047086Y-14357984D02*
X12066134Y-14367508D01*
X12066134Y-14367508D02*
X12075658Y-14377031D01*
X12075658Y-14377031D02*
X12085182Y-14396079D01*
X12085182Y-14396079D02*
X12094705Y-14434174D01*
X12094705Y-14434174D02*
X12094705Y-14481793D01*
X12094705Y-14481793D02*
X12085182Y-14519888D01*
X12085182Y-14519888D02*
X12075658Y-14538936D01*
X12075658Y-14538936D02*
X12066134Y-14548460D01*
X12066134Y-14548460D02*
X12047086Y-14557984D01*
X12047086Y-14557984D02*
X12028039Y-14557984D01*
X12028039Y-14557984D02*
X12008991Y-14548460D01*
X12008991Y-14548460D02*
X11999467Y-14538936D01*
X11999467Y-14538936D02*
X11989944Y-14519888D01*
X11989944Y-14519888D02*
X11980420Y-14481793D01*
X11980420Y-14481793D02*
X11980420Y-14434174D01*
X11980420Y-14434174D02*
X11989944Y-14396079D01*
X11989944Y-14396079D02*
X11999467Y-14377031D01*
X11999467Y-14377031D02*
X12008991Y-14367508D01*
X12008991Y-14367508D02*
X12028039Y-14357984D01*
X12180420Y-14557984D02*
X12180420Y-14424650D01*
X12180420Y-14443698D02*
X12189944Y-14434174D01*
X12189944Y-14434174D02*
X12208991Y-14424650D01*
X12208991Y-14424650D02*
X12237563Y-14424650D01*
X12237563Y-14424650D02*
X12256610Y-14434174D01*
X12256610Y-14434174D02*
X12266134Y-14453222D01*
X12266134Y-14453222D02*
X12266134Y-14557984D01*
X12266134Y-14453222D02*
X12275658Y-14434174D01*
X12275658Y-14434174D02*
X12294705Y-14424650D01*
X12294705Y-14424650D02*
X12323277Y-14424650D01*
X12323277Y-14424650D02*
X12342325Y-14434174D01*
X12342325Y-14434174D02*
X12351848Y-14453222D01*
X12351848Y-14453222D02*
X12351848Y-14557984D01*
X12447086Y-14557984D02*
X12447086Y-14424650D01*
X12447086Y-14443698D02*
X12456610Y-14434174D01*
X12456610Y-14434174D02*
X12475658Y-14424650D01*
X12475658Y-14424650D02*
X12504229Y-14424650D01*
X12504229Y-14424650D02*
X12523277Y-14434174D01*
X12523277Y-14434174D02*
X12532801Y-14453222D01*
X12532801Y-14453222D02*
X12532801Y-14557984D01*
X12532801Y-14453222D02*
X12542325Y-14434174D01*
X12542325Y-14434174D02*
X12561372Y-14424650D01*
X12561372Y-14424650D02*
X12589944Y-14424650D01*
X12589944Y-14424650D02*
X12608991Y-14434174D01*
X12608991Y-14434174D02*
X12618515Y-14453222D01*
X12618515Y-14453222D02*
X12618515Y-14557984D01*
X13008991Y-14348460D02*
X12837563Y-14605603D01*
X13266134Y-14357984D02*
X13285182Y-14357984D01*
X13285182Y-14357984D02*
X13304229Y-14367508D01*
X13304229Y-14367508D02*
X13313753Y-14377031D01*
X13313753Y-14377031D02*
X13323277Y-14396079D01*
X13323277Y-14396079D02*
X13332801Y-14434174D01*
X13332801Y-14434174D02*
X13332801Y-14481793D01*
X13332801Y-14481793D02*
X13323277Y-14519888D01*
X13323277Y-14519888D02*
X13313753Y-14538936D01*
X13313753Y-14538936D02*
X13304229Y-14548460D01*
X13304229Y-14548460D02*
X13285182Y-14557984D01*
X13285182Y-14557984D02*
X13266134Y-14557984D01*
X13266134Y-14557984D02*
X13247087Y-14548460D01*
X13247087Y-14548460D02*
X13237563Y-14538936D01*
X13237563Y-14538936D02*
X13228039Y-14519888D01*
X13228039Y-14519888D02*
X13218515Y-14481793D01*
X13218515Y-14481793D02*
X13218515Y-14434174D01*
X13218515Y-14434174D02*
X13228039Y-14396079D01*
X13228039Y-14396079D02*
X13237563Y-14377031D01*
X13237563Y-14377031D02*
X13247087Y-14367508D01*
X13247087Y-14367508D02*
X13266134Y-14357984D01*
X13418515Y-14538936D02*
X13428039Y-14548460D01*
X13428039Y-14548460D02*
X13418515Y-14557984D01*
X13418515Y-14557984D02*
X13408991Y-14548460D01*
X13408991Y-14548460D02*
X13418515Y-14538936D01*
X13418515Y-14538936D02*
X13418515Y-14557984D01*
X13551848Y-14357984D02*
X13570896Y-14357984D01*
X13570896Y-14357984D02*
X13589944Y-14367508D01*
X13589944Y-14367508D02*
X13599468Y-14377031D01*
X13599468Y-14377031D02*
X13608991Y-14396079D01*
X13608991Y-14396079D02*
X13618515Y-14434174D01*
X13618515Y-14434174D02*
X13618515Y-14481793D01*
X13618515Y-14481793D02*
X13608991Y-14519888D01*
X13608991Y-14519888D02*
X13599468Y-14538936D01*
X13599468Y-14538936D02*
X13589944Y-14548460D01*
X13589944Y-14548460D02*
X13570896Y-14557984D01*
X13570896Y-14557984D02*
X13551848Y-14557984D01*
X13551848Y-14557984D02*
X13532801Y-14548460D01*
X13532801Y-14548460D02*
X13523277Y-14538936D01*
X13523277Y-14538936D02*
X13513753Y-14519888D01*
X13513753Y-14519888D02*
X13504229Y-14481793D01*
X13504229Y-14481793D02*
X13504229Y-14434174D01*
X13504229Y-14434174D02*
X13513753Y-14396079D01*
X13513753Y-14396079D02*
X13523277Y-14377031D01*
X13523277Y-14377031D02*
X13532801Y-14367508D01*
X13532801Y-14367508D02*
X13551848Y-14357984D01*
X13799468Y-14357984D02*
X13704229Y-14357984D01*
X13704229Y-14357984D02*
X13694706Y-14453222D01*
X13694706Y-14453222D02*
X13704229Y-14443698D01*
X13704229Y-14443698D02*
X13723277Y-14434174D01*
X13723277Y-14434174D02*
X13770896Y-14434174D01*
X13770896Y-14434174D02*
X13789944Y-14443698D01*
X13789944Y-14443698D02*
X13799468Y-14453222D01*
X13799468Y-14453222D02*
X13808991Y-14472269D01*
X13808991Y-14472269D02*
X13808991Y-14519888D01*
X13808991Y-14519888D02*
X13799468Y-14538936D01*
X13799468Y-14538936D02*
X13789944Y-14548460D01*
X13789944Y-14548460D02*
X13770896Y-14557984D01*
X13770896Y-14557984D02*
X13723277Y-14557984D01*
X13723277Y-14557984D02*
X13704229Y-14548460D01*
X13704229Y-14548460D02*
X13694706Y-14538936D01*
X13875658Y-14357984D02*
X14008991Y-14357984D01*
X14008991Y-14357984D02*
X13923277Y-14557984D01*
X14189944Y-14557984D02*
X14075658Y-14557984D01*
X14132801Y-14557984D02*
X14132801Y-14357984D01*
X14132801Y-14357984D02*
X14113753Y-14386555D01*
X14113753Y-14386555D02*
X14094706Y-14405603D01*
X14094706Y-14405603D02*
X14075658Y-14415127D01*
X14266134Y-14357984D02*
X14266134Y-14396079D01*
X14342325Y-14357984D02*
X14342325Y-14396079D01*
X14637563Y-14634174D02*
X14628039Y-14624650D01*
X14628039Y-14624650D02*
X14608991Y-14596079D01*
X14608991Y-14596079D02*
X14599468Y-14577031D01*
X14599468Y-14577031D02*
X14589944Y-14548460D01*
X14589944Y-14548460D02*
X14580420Y-14500841D01*
X14580420Y-14500841D02*
X14580420Y-14462746D01*
X14580420Y-14462746D02*
X14589944Y-14415127D01*
X14589944Y-14415127D02*
X14599468Y-14386555D01*
X14599468Y-14386555D02*
X14608991Y-14367508D01*
X14608991Y-14367508D02*
X14628039Y-14338936D01*
X14628039Y-14338936D02*
X14637563Y-14329412D01*
X14704230Y-14377031D02*
X14713753Y-14367508D01*
X14713753Y-14367508D02*
X14732801Y-14357984D01*
X14732801Y-14357984D02*
X14780420Y-14357984D01*
X14780420Y-14357984D02*
X14799468Y-14367508D01*
X14799468Y-14367508D02*
X14808991Y-14377031D01*
X14808991Y-14377031D02*
X14818515Y-14396079D01*
X14818515Y-14396079D02*
X14818515Y-14415127D01*
X14818515Y-14415127D02*
X14808991Y-14443698D01*
X14808991Y-14443698D02*
X14694706Y-14557984D01*
X14694706Y-14557984D02*
X14818515Y-14557984D01*
X15056611Y-14557984D02*
X15056611Y-14357984D01*
X15142325Y-14557984D02*
X15142325Y-14453222D01*
X15142325Y-14453222D02*
X15132801Y-14434174D01*
X15132801Y-14434174D02*
X15113753Y-14424650D01*
X15113753Y-14424650D02*
X15085182Y-14424650D01*
X15085182Y-14424650D02*
X15066134Y-14434174D01*
X15066134Y-14434174D02*
X15056611Y-14443698D01*
X15266134Y-14557984D02*
X15247087Y-14548460D01*
X15247087Y-14548460D02*
X15237563Y-14538936D01*
X15237563Y-14538936D02*
X15228039Y-14519888D01*
X15228039Y-14519888D02*
X15228039Y-14462746D01*
X15228039Y-14462746D02*
X15237563Y-14443698D01*
X15237563Y-14443698D02*
X15247087Y-14434174D01*
X15247087Y-14434174D02*
X15266134Y-14424650D01*
X15266134Y-14424650D02*
X15294706Y-14424650D01*
X15294706Y-14424650D02*
X15313753Y-14434174D01*
X15313753Y-14434174D02*
X15323277Y-14443698D01*
X15323277Y-14443698D02*
X15332801Y-14462746D01*
X15332801Y-14462746D02*
X15332801Y-14519888D01*
X15332801Y-14519888D02*
X15323277Y-14538936D01*
X15323277Y-14538936D02*
X15313753Y-14548460D01*
X15313753Y-14548460D02*
X15294706Y-14557984D01*
X15294706Y-14557984D02*
X15266134Y-14557984D01*
X15447087Y-14557984D02*
X15428039Y-14548460D01*
X15428039Y-14548460D02*
X15418515Y-14529412D01*
X15418515Y-14529412D02*
X15418515Y-14357984D01*
X15599468Y-14548460D02*
X15580420Y-14557984D01*
X15580420Y-14557984D02*
X15542325Y-14557984D01*
X15542325Y-14557984D02*
X15523277Y-14548460D01*
X15523277Y-14548460D02*
X15513753Y-14529412D01*
X15513753Y-14529412D02*
X15513753Y-14453222D01*
X15513753Y-14453222D02*
X15523277Y-14434174D01*
X15523277Y-14434174D02*
X15542325Y-14424650D01*
X15542325Y-14424650D02*
X15580420Y-14424650D01*
X15580420Y-14424650D02*
X15599468Y-14434174D01*
X15599468Y-14434174D02*
X15608992Y-14453222D01*
X15608992Y-14453222D02*
X15608992Y-14472269D01*
X15608992Y-14472269D02*
X15513753Y-14491317D01*
X15685182Y-14548460D02*
X15704230Y-14557984D01*
X15704230Y-14557984D02*
X15742325Y-14557984D01*
X15742325Y-14557984D02*
X15761373Y-14548460D01*
X15761373Y-14548460D02*
X15770896Y-14529412D01*
X15770896Y-14529412D02*
X15770896Y-14519888D01*
X15770896Y-14519888D02*
X15761373Y-14500841D01*
X15761373Y-14500841D02*
X15742325Y-14491317D01*
X15742325Y-14491317D02*
X15713753Y-14491317D01*
X15713753Y-14491317D02*
X15694706Y-14481793D01*
X15694706Y-14481793D02*
X15685182Y-14462746D01*
X15685182Y-14462746D02*
X15685182Y-14453222D01*
X15685182Y-14453222D02*
X15694706Y-14434174D01*
X15694706Y-14434174D02*
X15713753Y-14424650D01*
X15713753Y-14424650D02*
X15742325Y-14424650D01*
X15742325Y-14424650D02*
X15761373Y-14434174D01*
X15837563Y-14634174D02*
X15847087Y-14624650D01*
X15847087Y-14624650D02*
X15866134Y-14596079D01*
X15866134Y-14596079D02*
X15875658Y-14577031D01*
X15875658Y-14577031D02*
X15885182Y-14548460D01*
X15885182Y-14548460D02*
X15894706Y-14500841D01*
X15894706Y-14500841D02*
X15894706Y-14462746D01*
X15894706Y-14462746D02*
X15885182Y-14415127D01*
X15885182Y-14415127D02*
X15875658Y-14386555D01*
X15875658Y-14386555D02*
X15866134Y-14367508D01*
X15866134Y-14367508D02*
X15847087Y-14338936D01*
X15847087Y-14338936D02*
X15837563Y-14329412D01*
X16199468Y-14634174D02*
X16189944Y-14624650D01*
X16189944Y-14624650D02*
X16170896Y-14596079D01*
X16170896Y-14596079D02*
X16161373Y-14577031D01*
X16161373Y-14577031D02*
X16151849Y-14548460D01*
X16151849Y-14548460D02*
X16142325Y-14500841D01*
X16142325Y-14500841D02*
X16142325Y-14462746D01*
X16142325Y-14462746D02*
X16151849Y-14415127D01*
X16151849Y-14415127D02*
X16161373Y-14386555D01*
X16161373Y-14386555D02*
X16170896Y-14367508D01*
X16170896Y-14367508D02*
X16189944Y-14338936D01*
X16189944Y-14338936D02*
X16199468Y-14329412D01*
X16275658Y-14424650D02*
X16275658Y-14557984D01*
X16275658Y-14443698D02*
X16285182Y-14434174D01*
X16285182Y-14434174D02*
X16304230Y-14424650D01*
X16304230Y-14424650D02*
X16332801Y-14424650D01*
X16332801Y-14424650D02*
X16351849Y-14434174D01*
X16351849Y-14434174D02*
X16361373Y-14453222D01*
X16361373Y-14453222D02*
X16361373Y-14557984D01*
X16485182Y-14557984D02*
X16466134Y-14548460D01*
X16466134Y-14548460D02*
X16456611Y-14538936D01*
X16456611Y-14538936D02*
X16447087Y-14519888D01*
X16447087Y-14519888D02*
X16447087Y-14462746D01*
X16447087Y-14462746D02*
X16456611Y-14443698D01*
X16456611Y-14443698D02*
X16466134Y-14434174D01*
X16466134Y-14434174D02*
X16485182Y-14424650D01*
X16485182Y-14424650D02*
X16513754Y-14424650D01*
X16513754Y-14424650D02*
X16532801Y-14434174D01*
X16532801Y-14434174D02*
X16542325Y-14443698D01*
X16542325Y-14443698D02*
X16551849Y-14462746D01*
X16551849Y-14462746D02*
X16551849Y-14519888D01*
X16551849Y-14519888D02*
X16542325Y-14538936D01*
X16542325Y-14538936D02*
X16532801Y-14548460D01*
X16532801Y-14548460D02*
X16513754Y-14557984D01*
X16513754Y-14557984D02*
X16485182Y-14557984D01*
X16608992Y-14424650D02*
X16685182Y-14424650D01*
X16637563Y-14357984D02*
X16637563Y-14529412D01*
X16637563Y-14529412D02*
X16647087Y-14548460D01*
X16647087Y-14548460D02*
X16666134Y-14557984D01*
X16666134Y-14557984D02*
X16685182Y-14557984D01*
X16904230Y-14424650D02*
X16904230Y-14624650D01*
X16904230Y-14434174D02*
X16923277Y-14424650D01*
X16923277Y-14424650D02*
X16961373Y-14424650D01*
X16961373Y-14424650D02*
X16980420Y-14434174D01*
X16980420Y-14434174D02*
X16989944Y-14443698D01*
X16989944Y-14443698D02*
X16999468Y-14462746D01*
X16999468Y-14462746D02*
X16999468Y-14519888D01*
X16999468Y-14519888D02*
X16989944Y-14538936D01*
X16989944Y-14538936D02*
X16980420Y-14548460D01*
X16980420Y-14548460D02*
X16961373Y-14557984D01*
X16961373Y-14557984D02*
X16923277Y-14557984D01*
X16923277Y-14557984D02*
X16904230Y-14548460D01*
X17113754Y-14557984D02*
X17094706Y-14548460D01*
X17094706Y-14548460D02*
X17085182Y-14529412D01*
X17085182Y-14529412D02*
X17085182Y-14357984D01*
X17275658Y-14557984D02*
X17275658Y-14453222D01*
X17275658Y-14453222D02*
X17266135Y-14434174D01*
X17266135Y-14434174D02*
X17247087Y-14424650D01*
X17247087Y-14424650D02*
X17208992Y-14424650D01*
X17208992Y-14424650D02*
X17189944Y-14434174D01*
X17275658Y-14548460D02*
X17256611Y-14557984D01*
X17256611Y-14557984D02*
X17208992Y-14557984D01*
X17208992Y-14557984D02*
X17189944Y-14548460D01*
X17189944Y-14548460D02*
X17180420Y-14529412D01*
X17180420Y-14529412D02*
X17180420Y-14510365D01*
X17180420Y-14510365D02*
X17189944Y-14491317D01*
X17189944Y-14491317D02*
X17208992Y-14481793D01*
X17208992Y-14481793D02*
X17256611Y-14481793D01*
X17256611Y-14481793D02*
X17275658Y-14472269D01*
X17342325Y-14424650D02*
X17418516Y-14424650D01*
X17370897Y-14357984D02*
X17370897Y-14529412D01*
X17370897Y-14529412D02*
X17380420Y-14548460D01*
X17380420Y-14548460D02*
X17399468Y-14557984D01*
X17399468Y-14557984D02*
X17418516Y-14557984D01*
X17561373Y-14548460D02*
X17542325Y-14557984D01*
X17542325Y-14557984D02*
X17504230Y-14557984D01*
X17504230Y-14557984D02*
X17485182Y-14548460D01*
X17485182Y-14548460D02*
X17475658Y-14529412D01*
X17475658Y-14529412D02*
X17475658Y-14453222D01*
X17475658Y-14453222D02*
X17485182Y-14434174D01*
X17485182Y-14434174D02*
X17504230Y-14424650D01*
X17504230Y-14424650D02*
X17542325Y-14424650D01*
X17542325Y-14424650D02*
X17561373Y-14434174D01*
X17561373Y-14434174D02*
X17570897Y-14453222D01*
X17570897Y-14453222D02*
X17570897Y-14472269D01*
X17570897Y-14472269D02*
X17475658Y-14491317D01*
X17742325Y-14557984D02*
X17742325Y-14357984D01*
X17742325Y-14548460D02*
X17723278Y-14557984D01*
X17723278Y-14557984D02*
X17685182Y-14557984D01*
X17685182Y-14557984D02*
X17666135Y-14548460D01*
X17666135Y-14548460D02*
X17656611Y-14538936D01*
X17656611Y-14538936D02*
X17647087Y-14519888D01*
X17647087Y-14519888D02*
X17647087Y-14462746D01*
X17647087Y-14462746D02*
X17656611Y-14443698D01*
X17656611Y-14443698D02*
X17666135Y-14434174D01*
X17666135Y-14434174D02*
X17685182Y-14424650D01*
X17685182Y-14424650D02*
X17723278Y-14424650D01*
X17723278Y-14424650D02*
X17742325Y-14434174D01*
X17818516Y-14634174D02*
X17828039Y-14624650D01*
X17828039Y-14624650D02*
X17847087Y-14596079D01*
X17847087Y-14596079D02*
X17856611Y-14577031D01*
X17856611Y-14577031D02*
X17866135Y-14548460D01*
X17866135Y-14548460D02*
X17875658Y-14500841D01*
X17875658Y-14500841D02*
X17875658Y-14462746D01*
X17875658Y-14462746D02*
X17866135Y-14415127D01*
X17866135Y-14415127D02*
X17856611Y-14386555D01*
X17856611Y-14386555D02*
X17847087Y-14367508D01*
X17847087Y-14367508D02*
X17828039Y-14338936D01*
X17828039Y-14338936D02*
X17818516Y-14329412D01*
D14*
X10980000Y-14649000D02*
X10980000Y-14814000D01*
X10897500Y-14731500D02*
X11062500Y-14731500D01*
D11*
X11428039Y-14822984D02*
X11313753Y-14822984D01*
X11370896Y-14822984D02*
X11370896Y-14622984D01*
X11370896Y-14622984D02*
X11351848Y-14651555D01*
X11351848Y-14651555D02*
X11332801Y-14670603D01*
X11332801Y-14670603D02*
X11313753Y-14680127D01*
X11513753Y-14803936D02*
X11523277Y-14813460D01*
X11523277Y-14813460D02*
X11513753Y-14822984D01*
X11513753Y-14822984D02*
X11504229Y-14813460D01*
X11504229Y-14813460D02*
X11513753Y-14803936D01*
X11513753Y-14803936D02*
X11513753Y-14822984D01*
X11694705Y-14622984D02*
X11656610Y-14622984D01*
X11656610Y-14622984D02*
X11637563Y-14632508D01*
X11637563Y-14632508D02*
X11628039Y-14642031D01*
X11628039Y-14642031D02*
X11608991Y-14670603D01*
X11608991Y-14670603D02*
X11599467Y-14708698D01*
X11599467Y-14708698D02*
X11599467Y-14784888D01*
X11599467Y-14784888D02*
X11608991Y-14803936D01*
X11608991Y-14803936D02*
X11618515Y-14813460D01*
X11618515Y-14813460D02*
X11637563Y-14822984D01*
X11637563Y-14822984D02*
X11675658Y-14822984D01*
X11675658Y-14822984D02*
X11694705Y-14813460D01*
X11694705Y-14813460D02*
X11704229Y-14803936D01*
X11704229Y-14803936D02*
X11713753Y-14784888D01*
X11713753Y-14784888D02*
X11713753Y-14737269D01*
X11713753Y-14737269D02*
X11704229Y-14718222D01*
X11704229Y-14718222D02*
X11694705Y-14708698D01*
X11694705Y-14708698D02*
X11675658Y-14699174D01*
X11675658Y-14699174D02*
X11637563Y-14699174D01*
X11637563Y-14699174D02*
X11618515Y-14708698D01*
X11618515Y-14708698D02*
X11608991Y-14718222D01*
X11608991Y-14718222D02*
X11599467Y-14737269D01*
X11894705Y-14622984D02*
X11799467Y-14622984D01*
X11799467Y-14622984D02*
X11789944Y-14718222D01*
X11789944Y-14718222D02*
X11799467Y-14708698D01*
X11799467Y-14708698D02*
X11818515Y-14699174D01*
X11818515Y-14699174D02*
X11866134Y-14699174D01*
X11866134Y-14699174D02*
X11885182Y-14708698D01*
X11885182Y-14708698D02*
X11894705Y-14718222D01*
X11894705Y-14718222D02*
X11904229Y-14737269D01*
X11904229Y-14737269D02*
X11904229Y-14784888D01*
X11904229Y-14784888D02*
X11894705Y-14803936D01*
X11894705Y-14803936D02*
X11885182Y-14813460D01*
X11885182Y-14813460D02*
X11866134Y-14822984D01*
X11866134Y-14822984D02*
X11818515Y-14822984D01*
X11818515Y-14822984D02*
X11799467Y-14813460D01*
X11799467Y-14813460D02*
X11789944Y-14803936D01*
X12028039Y-14622984D02*
X12047086Y-14622984D01*
X12047086Y-14622984D02*
X12066134Y-14632508D01*
X12066134Y-14632508D02*
X12075658Y-14642031D01*
X12075658Y-14642031D02*
X12085182Y-14661079D01*
X12085182Y-14661079D02*
X12094705Y-14699174D01*
X12094705Y-14699174D02*
X12094705Y-14746793D01*
X12094705Y-14746793D02*
X12085182Y-14784888D01*
X12085182Y-14784888D02*
X12075658Y-14803936D01*
X12075658Y-14803936D02*
X12066134Y-14813460D01*
X12066134Y-14813460D02*
X12047086Y-14822984D01*
X12047086Y-14822984D02*
X12028039Y-14822984D01*
X12028039Y-14822984D02*
X12008991Y-14813460D01*
X12008991Y-14813460D02*
X11999467Y-14803936D01*
X11999467Y-14803936D02*
X11989944Y-14784888D01*
X11989944Y-14784888D02*
X11980420Y-14746793D01*
X11980420Y-14746793D02*
X11980420Y-14699174D01*
X11980420Y-14699174D02*
X11989944Y-14661079D01*
X11989944Y-14661079D02*
X11999467Y-14642031D01*
X11999467Y-14642031D02*
X12008991Y-14632508D01*
X12008991Y-14632508D02*
X12028039Y-14622984D01*
X12180420Y-14822984D02*
X12180420Y-14689650D01*
X12180420Y-14708698D02*
X12189944Y-14699174D01*
X12189944Y-14699174D02*
X12208991Y-14689650D01*
X12208991Y-14689650D02*
X12237563Y-14689650D01*
X12237563Y-14689650D02*
X12256610Y-14699174D01*
X12256610Y-14699174D02*
X12266134Y-14718222D01*
X12266134Y-14718222D02*
X12266134Y-14822984D01*
X12266134Y-14718222D02*
X12275658Y-14699174D01*
X12275658Y-14699174D02*
X12294705Y-14689650D01*
X12294705Y-14689650D02*
X12323277Y-14689650D01*
X12323277Y-14689650D02*
X12342325Y-14699174D01*
X12342325Y-14699174D02*
X12351848Y-14718222D01*
X12351848Y-14718222D02*
X12351848Y-14822984D01*
X12447086Y-14822984D02*
X12447086Y-14689650D01*
X12447086Y-14708698D02*
X12456610Y-14699174D01*
X12456610Y-14699174D02*
X12475658Y-14689650D01*
X12475658Y-14689650D02*
X12504229Y-14689650D01*
X12504229Y-14689650D02*
X12523277Y-14699174D01*
X12523277Y-14699174D02*
X12532801Y-14718222D01*
X12532801Y-14718222D02*
X12532801Y-14822984D01*
X12532801Y-14718222D02*
X12542325Y-14699174D01*
X12542325Y-14699174D02*
X12561372Y-14689650D01*
X12561372Y-14689650D02*
X12589944Y-14689650D01*
X12589944Y-14689650D02*
X12608991Y-14699174D01*
X12608991Y-14699174D02*
X12618515Y-14718222D01*
X12618515Y-14718222D02*
X12618515Y-14822984D01*
X13008991Y-14613460D02*
X12837563Y-14870603D01*
X13266134Y-14622984D02*
X13285182Y-14622984D01*
X13285182Y-14622984D02*
X13304229Y-14632508D01*
X13304229Y-14632508D02*
X13313753Y-14642031D01*
X13313753Y-14642031D02*
X13323277Y-14661079D01*
X13323277Y-14661079D02*
X13332801Y-14699174D01*
X13332801Y-14699174D02*
X13332801Y-14746793D01*
X13332801Y-14746793D02*
X13323277Y-14784888D01*
X13323277Y-14784888D02*
X13313753Y-14803936D01*
X13313753Y-14803936D02*
X13304229Y-14813460D01*
X13304229Y-14813460D02*
X13285182Y-14822984D01*
X13285182Y-14822984D02*
X13266134Y-14822984D01*
X13266134Y-14822984D02*
X13247087Y-14813460D01*
X13247087Y-14813460D02*
X13237563Y-14803936D01*
X13237563Y-14803936D02*
X13228039Y-14784888D01*
X13228039Y-14784888D02*
X13218515Y-14746793D01*
X13218515Y-14746793D02*
X13218515Y-14699174D01*
X13218515Y-14699174D02*
X13228039Y-14661079D01*
X13228039Y-14661079D02*
X13237563Y-14642031D01*
X13237563Y-14642031D02*
X13247087Y-14632508D01*
X13247087Y-14632508D02*
X13266134Y-14622984D01*
X13418515Y-14803936D02*
X13428039Y-14813460D01*
X13428039Y-14813460D02*
X13418515Y-14822984D01*
X13418515Y-14822984D02*
X13408991Y-14813460D01*
X13408991Y-14813460D02*
X13418515Y-14803936D01*
X13418515Y-14803936D02*
X13418515Y-14822984D01*
X13551848Y-14622984D02*
X13570896Y-14622984D01*
X13570896Y-14622984D02*
X13589944Y-14632508D01*
X13589944Y-14632508D02*
X13599468Y-14642031D01*
X13599468Y-14642031D02*
X13608991Y-14661079D01*
X13608991Y-14661079D02*
X13618515Y-14699174D01*
X13618515Y-14699174D02*
X13618515Y-14746793D01*
X13618515Y-14746793D02*
X13608991Y-14784888D01*
X13608991Y-14784888D02*
X13599468Y-14803936D01*
X13599468Y-14803936D02*
X13589944Y-14813460D01*
X13589944Y-14813460D02*
X13570896Y-14822984D01*
X13570896Y-14822984D02*
X13551848Y-14822984D01*
X13551848Y-14822984D02*
X13532801Y-14813460D01*
X13532801Y-14813460D02*
X13523277Y-14803936D01*
X13523277Y-14803936D02*
X13513753Y-14784888D01*
X13513753Y-14784888D02*
X13504229Y-14746793D01*
X13504229Y-14746793D02*
X13504229Y-14699174D01*
X13504229Y-14699174D02*
X13513753Y-14661079D01*
X13513753Y-14661079D02*
X13523277Y-14642031D01*
X13523277Y-14642031D02*
X13532801Y-14632508D01*
X13532801Y-14632508D02*
X13551848Y-14622984D01*
X13789944Y-14622984D02*
X13751848Y-14622984D01*
X13751848Y-14622984D02*
X13732801Y-14632508D01*
X13732801Y-14632508D02*
X13723277Y-14642031D01*
X13723277Y-14642031D02*
X13704229Y-14670603D01*
X13704229Y-14670603D02*
X13694706Y-14708698D01*
X13694706Y-14708698D02*
X13694706Y-14784888D01*
X13694706Y-14784888D02*
X13704229Y-14803936D01*
X13704229Y-14803936D02*
X13713753Y-14813460D01*
X13713753Y-14813460D02*
X13732801Y-14822984D01*
X13732801Y-14822984D02*
X13770896Y-14822984D01*
X13770896Y-14822984D02*
X13789944Y-14813460D01*
X13789944Y-14813460D02*
X13799468Y-14803936D01*
X13799468Y-14803936D02*
X13808991Y-14784888D01*
X13808991Y-14784888D02*
X13808991Y-14737269D01*
X13808991Y-14737269D02*
X13799468Y-14718222D01*
X13799468Y-14718222D02*
X13789944Y-14708698D01*
X13789944Y-14708698D02*
X13770896Y-14699174D01*
X13770896Y-14699174D02*
X13732801Y-14699174D01*
X13732801Y-14699174D02*
X13713753Y-14708698D01*
X13713753Y-14708698D02*
X13704229Y-14718222D01*
X13704229Y-14718222D02*
X13694706Y-14737269D01*
X13989944Y-14622984D02*
X13894706Y-14622984D01*
X13894706Y-14622984D02*
X13885182Y-14718222D01*
X13885182Y-14718222D02*
X13894706Y-14708698D01*
X13894706Y-14708698D02*
X13913753Y-14699174D01*
X13913753Y-14699174D02*
X13961372Y-14699174D01*
X13961372Y-14699174D02*
X13980420Y-14708698D01*
X13980420Y-14708698D02*
X13989944Y-14718222D01*
X13989944Y-14718222D02*
X13999468Y-14737269D01*
X13999468Y-14737269D02*
X13999468Y-14784888D01*
X13999468Y-14784888D02*
X13989944Y-14803936D01*
X13989944Y-14803936D02*
X13980420Y-14813460D01*
X13980420Y-14813460D02*
X13961372Y-14822984D01*
X13961372Y-14822984D02*
X13913753Y-14822984D01*
X13913753Y-14822984D02*
X13894706Y-14813460D01*
X13894706Y-14813460D02*
X13885182Y-14803936D01*
X14123277Y-14622984D02*
X14142325Y-14622984D01*
X14142325Y-14622984D02*
X14161372Y-14632508D01*
X14161372Y-14632508D02*
X14170896Y-14642031D01*
X14170896Y-14642031D02*
X14180420Y-14661079D01*
X14180420Y-14661079D02*
X14189944Y-14699174D01*
X14189944Y-14699174D02*
X14189944Y-14746793D01*
X14189944Y-14746793D02*
X14180420Y-14784888D01*
X14180420Y-14784888D02*
X14170896Y-14803936D01*
X14170896Y-14803936D02*
X14161372Y-14813460D01*
X14161372Y-14813460D02*
X14142325Y-14822984D01*
X14142325Y-14822984D02*
X14123277Y-14822984D01*
X14123277Y-14822984D02*
X14104229Y-14813460D01*
X14104229Y-14813460D02*
X14094706Y-14803936D01*
X14094706Y-14803936D02*
X14085182Y-14784888D01*
X14085182Y-14784888D02*
X14075658Y-14746793D01*
X14075658Y-14746793D02*
X14075658Y-14699174D01*
X14075658Y-14699174D02*
X14085182Y-14661079D01*
X14085182Y-14661079D02*
X14094706Y-14642031D01*
X14094706Y-14642031D02*
X14104229Y-14632508D01*
X14104229Y-14632508D02*
X14123277Y-14622984D01*
X14266134Y-14622984D02*
X14266134Y-14661079D01*
X14342325Y-14622984D02*
X14342325Y-14661079D01*
X14637563Y-14899174D02*
X14628039Y-14889650D01*
X14628039Y-14889650D02*
X14608991Y-14861079D01*
X14608991Y-14861079D02*
X14599468Y-14842031D01*
X14599468Y-14842031D02*
X14589944Y-14813460D01*
X14589944Y-14813460D02*
X14580420Y-14765841D01*
X14580420Y-14765841D02*
X14580420Y-14727746D01*
X14580420Y-14727746D02*
X14589944Y-14680127D01*
X14589944Y-14680127D02*
X14599468Y-14651555D01*
X14599468Y-14651555D02*
X14608991Y-14632508D01*
X14608991Y-14632508D02*
X14628039Y-14603936D01*
X14628039Y-14603936D02*
X14637563Y-14594412D01*
X14818515Y-14822984D02*
X14704230Y-14822984D01*
X14761372Y-14822984D02*
X14761372Y-14622984D01*
X14761372Y-14622984D02*
X14742325Y-14651555D01*
X14742325Y-14651555D02*
X14723277Y-14670603D01*
X14723277Y-14670603D02*
X14704230Y-14680127D01*
X15056611Y-14822984D02*
X15056611Y-14622984D01*
X15142325Y-14822984D02*
X15142325Y-14718222D01*
X15142325Y-14718222D02*
X15132801Y-14699174D01*
X15132801Y-14699174D02*
X15113753Y-14689650D01*
X15113753Y-14689650D02*
X15085182Y-14689650D01*
X15085182Y-14689650D02*
X15066134Y-14699174D01*
X15066134Y-14699174D02*
X15056611Y-14708698D01*
X15266134Y-14822984D02*
X15247087Y-14813460D01*
X15247087Y-14813460D02*
X15237563Y-14803936D01*
X15237563Y-14803936D02*
X15228039Y-14784888D01*
X15228039Y-14784888D02*
X15228039Y-14727746D01*
X15228039Y-14727746D02*
X15237563Y-14708698D01*
X15237563Y-14708698D02*
X15247087Y-14699174D01*
X15247087Y-14699174D02*
X15266134Y-14689650D01*
X15266134Y-14689650D02*
X15294706Y-14689650D01*
X15294706Y-14689650D02*
X15313753Y-14699174D01*
X15313753Y-14699174D02*
X15323277Y-14708698D01*
X15323277Y-14708698D02*
X15332801Y-14727746D01*
X15332801Y-14727746D02*
X15332801Y-14784888D01*
X15332801Y-14784888D02*
X15323277Y-14803936D01*
X15323277Y-14803936D02*
X15313753Y-14813460D01*
X15313753Y-14813460D02*
X15294706Y-14822984D01*
X15294706Y-14822984D02*
X15266134Y-14822984D01*
X15447087Y-14822984D02*
X15428039Y-14813460D01*
X15428039Y-14813460D02*
X15418515Y-14794412D01*
X15418515Y-14794412D02*
X15418515Y-14622984D01*
X15599468Y-14813460D02*
X15580420Y-14822984D01*
X15580420Y-14822984D02*
X15542325Y-14822984D01*
X15542325Y-14822984D02*
X15523277Y-14813460D01*
X15523277Y-14813460D02*
X15513753Y-14794412D01*
X15513753Y-14794412D02*
X15513753Y-14718222D01*
X15513753Y-14718222D02*
X15523277Y-14699174D01*
X15523277Y-14699174D02*
X15542325Y-14689650D01*
X15542325Y-14689650D02*
X15580420Y-14689650D01*
X15580420Y-14689650D02*
X15599468Y-14699174D01*
X15599468Y-14699174D02*
X15608992Y-14718222D01*
X15608992Y-14718222D02*
X15608992Y-14737269D01*
X15608992Y-14737269D02*
X15513753Y-14756317D01*
X15675658Y-14899174D02*
X15685182Y-14889650D01*
X15685182Y-14889650D02*
X15704230Y-14861079D01*
X15704230Y-14861079D02*
X15713753Y-14842031D01*
X15713753Y-14842031D02*
X15723277Y-14813460D01*
X15723277Y-14813460D02*
X15732801Y-14765841D01*
X15732801Y-14765841D02*
X15732801Y-14727746D01*
X15732801Y-14727746D02*
X15723277Y-14680127D01*
X15723277Y-14680127D02*
X15713753Y-14651555D01*
X15713753Y-14651555D02*
X15704230Y-14632508D01*
X15704230Y-14632508D02*
X15685182Y-14603936D01*
X15685182Y-14603936D02*
X15675658Y-14594412D01*
X16037563Y-14899174D02*
X16028039Y-14889650D01*
X16028039Y-14889650D02*
X16008992Y-14861079D01*
X16008992Y-14861079D02*
X15999468Y-14842031D01*
X15999468Y-14842031D02*
X15989944Y-14813460D01*
X15989944Y-14813460D02*
X15980420Y-14765841D01*
X15980420Y-14765841D02*
X15980420Y-14727746D01*
X15980420Y-14727746D02*
X15989944Y-14680127D01*
X15989944Y-14680127D02*
X15999468Y-14651555D01*
X15999468Y-14651555D02*
X16008992Y-14632508D01*
X16008992Y-14632508D02*
X16028039Y-14603936D01*
X16028039Y-14603936D02*
X16037563Y-14594412D01*
X16113753Y-14689650D02*
X16113753Y-14822984D01*
X16113753Y-14708698D02*
X16123277Y-14699174D01*
X16123277Y-14699174D02*
X16142325Y-14689650D01*
X16142325Y-14689650D02*
X16170896Y-14689650D01*
X16170896Y-14689650D02*
X16189944Y-14699174D01*
X16189944Y-14699174D02*
X16199468Y-14718222D01*
X16199468Y-14718222D02*
X16199468Y-14822984D01*
X16323277Y-14822984D02*
X16304230Y-14813460D01*
X16304230Y-14813460D02*
X16294706Y-14803936D01*
X16294706Y-14803936D02*
X16285182Y-14784888D01*
X16285182Y-14784888D02*
X16285182Y-14727746D01*
X16285182Y-14727746D02*
X16294706Y-14708698D01*
X16294706Y-14708698D02*
X16304230Y-14699174D01*
X16304230Y-14699174D02*
X16323277Y-14689650D01*
X16323277Y-14689650D02*
X16351849Y-14689650D01*
X16351849Y-14689650D02*
X16370896Y-14699174D01*
X16370896Y-14699174D02*
X16380420Y-14708698D01*
X16380420Y-14708698D02*
X16389944Y-14727746D01*
X16389944Y-14727746D02*
X16389944Y-14784888D01*
X16389944Y-14784888D02*
X16380420Y-14803936D01*
X16380420Y-14803936D02*
X16370896Y-14813460D01*
X16370896Y-14813460D02*
X16351849Y-14822984D01*
X16351849Y-14822984D02*
X16323277Y-14822984D01*
X16447087Y-14689650D02*
X16523277Y-14689650D01*
X16475658Y-14622984D02*
X16475658Y-14794412D01*
X16475658Y-14794412D02*
X16485182Y-14813460D01*
X16485182Y-14813460D02*
X16504230Y-14822984D01*
X16504230Y-14822984D02*
X16523277Y-14822984D01*
X16742325Y-14689650D02*
X16742325Y-14889650D01*
X16742325Y-14699174D02*
X16761373Y-14689650D01*
X16761373Y-14689650D02*
X16799468Y-14689650D01*
X16799468Y-14689650D02*
X16818516Y-14699174D01*
X16818516Y-14699174D02*
X16828039Y-14708698D01*
X16828039Y-14708698D02*
X16837563Y-14727746D01*
X16837563Y-14727746D02*
X16837563Y-14784888D01*
X16837563Y-14784888D02*
X16828039Y-14803936D01*
X16828039Y-14803936D02*
X16818516Y-14813460D01*
X16818516Y-14813460D02*
X16799468Y-14822984D01*
X16799468Y-14822984D02*
X16761373Y-14822984D01*
X16761373Y-14822984D02*
X16742325Y-14813460D01*
X16951849Y-14822984D02*
X16932801Y-14813460D01*
X16932801Y-14813460D02*
X16923277Y-14794412D01*
X16923277Y-14794412D02*
X16923277Y-14622984D01*
X17113754Y-14822984D02*
X17113754Y-14718222D01*
X17113754Y-14718222D02*
X17104230Y-14699174D01*
X17104230Y-14699174D02*
X17085182Y-14689650D01*
X17085182Y-14689650D02*
X17047087Y-14689650D01*
X17047087Y-14689650D02*
X17028039Y-14699174D01*
X17113754Y-14813460D02*
X17094706Y-14822984D01*
X17094706Y-14822984D02*
X17047087Y-14822984D01*
X17047087Y-14822984D02*
X17028039Y-14813460D01*
X17028039Y-14813460D02*
X17018516Y-14794412D01*
X17018516Y-14794412D02*
X17018516Y-14775365D01*
X17018516Y-14775365D02*
X17028039Y-14756317D01*
X17028039Y-14756317D02*
X17047087Y-14746793D01*
X17047087Y-14746793D02*
X17094706Y-14746793D01*
X17094706Y-14746793D02*
X17113754Y-14737269D01*
X17180420Y-14689650D02*
X17256611Y-14689650D01*
X17208992Y-14622984D02*
X17208992Y-14794412D01*
X17208992Y-14794412D02*
X17218516Y-14813460D01*
X17218516Y-14813460D02*
X17237563Y-14822984D01*
X17237563Y-14822984D02*
X17256611Y-14822984D01*
X17399468Y-14813460D02*
X17380420Y-14822984D01*
X17380420Y-14822984D02*
X17342325Y-14822984D01*
X17342325Y-14822984D02*
X17323277Y-14813460D01*
X17323277Y-14813460D02*
X17313754Y-14794412D01*
X17313754Y-14794412D02*
X17313754Y-14718222D01*
X17313754Y-14718222D02*
X17323277Y-14699174D01*
X17323277Y-14699174D02*
X17342325Y-14689650D01*
X17342325Y-14689650D02*
X17380420Y-14689650D01*
X17380420Y-14689650D02*
X17399468Y-14699174D01*
X17399468Y-14699174D02*
X17408992Y-14718222D01*
X17408992Y-14718222D02*
X17408992Y-14737269D01*
X17408992Y-14737269D02*
X17313754Y-14756317D01*
X17580420Y-14822984D02*
X17580420Y-14622984D01*
X17580420Y-14813460D02*
X17561373Y-14822984D01*
X17561373Y-14822984D02*
X17523277Y-14822984D01*
X17523277Y-14822984D02*
X17504230Y-14813460D01*
X17504230Y-14813460D02*
X17494706Y-14803936D01*
X17494706Y-14803936D02*
X17485182Y-14784888D01*
X17485182Y-14784888D02*
X17485182Y-14727746D01*
X17485182Y-14727746D02*
X17494706Y-14708698D01*
X17494706Y-14708698D02*
X17504230Y-14699174D01*
X17504230Y-14699174D02*
X17523277Y-14689650D01*
X17523277Y-14689650D02*
X17561373Y-14689650D01*
X17561373Y-14689650D02*
X17580420Y-14699174D01*
X17656611Y-14899174D02*
X17666135Y-14889650D01*
X17666135Y-14889650D02*
X17685182Y-14861079D01*
X17685182Y-14861079D02*
X17694706Y-14842031D01*
X17694706Y-14842031D02*
X17704230Y-14813460D01*
X17704230Y-14813460D02*
X17713754Y-14765841D01*
X17713754Y-14765841D02*
X17713754Y-14727746D01*
X17713754Y-14727746D02*
X17704230Y-14680127D01*
X17704230Y-14680127D02*
X17694706Y-14651555D01*
X17694706Y-14651555D02*
X17685182Y-14632508D01*
X17685182Y-14632508D02*
X17666135Y-14603936D01*
X17666135Y-14603936D02*
X17656611Y-14594412D01*
X11033212Y-15087211D02*
X11033212Y-14945789D01*
X10891789Y-14945789D01*
X10891789Y-15087211D01*
X11033212Y-15087211D01*
X11313753Y-14927031D02*
X11323277Y-14917508D01*
X11323277Y-14917508D02*
X11342324Y-14907984D01*
X11342324Y-14907984D02*
X11389944Y-14907984D01*
X11389944Y-14907984D02*
X11408991Y-14917508D01*
X11408991Y-14917508D02*
X11418515Y-14927031D01*
X11418515Y-14927031D02*
X11428039Y-14946079D01*
X11428039Y-14946079D02*
X11428039Y-14965127D01*
X11428039Y-14965127D02*
X11418515Y-14993698D01*
X11418515Y-14993698D02*
X11304229Y-15107984D01*
X11304229Y-15107984D02*
X11428039Y-15107984D01*
X11513753Y-15088936D02*
X11523277Y-15098460D01*
X11523277Y-15098460D02*
X11513753Y-15107984D01*
X11513753Y-15107984D02*
X11504229Y-15098460D01*
X11504229Y-15098460D02*
X11513753Y-15088936D01*
X11513753Y-15088936D02*
X11513753Y-15107984D01*
X11589944Y-14907984D02*
X11723277Y-14907984D01*
X11723277Y-14907984D02*
X11637563Y-15107984D01*
X11837563Y-14907984D02*
X11856610Y-14907984D01*
X11856610Y-14907984D02*
X11875658Y-14917508D01*
X11875658Y-14917508D02*
X11885182Y-14927031D01*
X11885182Y-14927031D02*
X11894705Y-14946079D01*
X11894705Y-14946079D02*
X11904229Y-14984174D01*
X11904229Y-14984174D02*
X11904229Y-15031793D01*
X11904229Y-15031793D02*
X11894705Y-15069888D01*
X11894705Y-15069888D02*
X11885182Y-15088936D01*
X11885182Y-15088936D02*
X11875658Y-15098460D01*
X11875658Y-15098460D02*
X11856610Y-15107984D01*
X11856610Y-15107984D02*
X11837563Y-15107984D01*
X11837563Y-15107984D02*
X11818515Y-15098460D01*
X11818515Y-15098460D02*
X11808991Y-15088936D01*
X11808991Y-15088936D02*
X11799467Y-15069888D01*
X11799467Y-15069888D02*
X11789944Y-15031793D01*
X11789944Y-15031793D02*
X11789944Y-14984174D01*
X11789944Y-14984174D02*
X11799467Y-14946079D01*
X11799467Y-14946079D02*
X11808991Y-14927031D01*
X11808991Y-14927031D02*
X11818515Y-14917508D01*
X11818515Y-14917508D02*
X11837563Y-14907984D01*
X12028039Y-14907984D02*
X12047086Y-14907984D01*
X12047086Y-14907984D02*
X12066134Y-14917508D01*
X12066134Y-14917508D02*
X12075658Y-14927031D01*
X12075658Y-14927031D02*
X12085182Y-14946079D01*
X12085182Y-14946079D02*
X12094705Y-14984174D01*
X12094705Y-14984174D02*
X12094705Y-15031793D01*
X12094705Y-15031793D02*
X12085182Y-15069888D01*
X12085182Y-15069888D02*
X12075658Y-15088936D01*
X12075658Y-15088936D02*
X12066134Y-15098460D01*
X12066134Y-15098460D02*
X12047086Y-15107984D01*
X12047086Y-15107984D02*
X12028039Y-15107984D01*
X12028039Y-15107984D02*
X12008991Y-15098460D01*
X12008991Y-15098460D02*
X11999467Y-15088936D01*
X11999467Y-15088936D02*
X11989944Y-15069888D01*
X11989944Y-15069888D02*
X11980420Y-15031793D01*
X11980420Y-15031793D02*
X11980420Y-14984174D01*
X11980420Y-14984174D02*
X11989944Y-14946079D01*
X11989944Y-14946079D02*
X11999467Y-14927031D01*
X11999467Y-14927031D02*
X12008991Y-14917508D01*
X12008991Y-14917508D02*
X12028039Y-14907984D01*
X12180420Y-15107984D02*
X12180420Y-14974650D01*
X12180420Y-14993698D02*
X12189944Y-14984174D01*
X12189944Y-14984174D02*
X12208991Y-14974650D01*
X12208991Y-14974650D02*
X12237563Y-14974650D01*
X12237563Y-14974650D02*
X12256610Y-14984174D01*
X12256610Y-14984174D02*
X12266134Y-15003222D01*
X12266134Y-15003222D02*
X12266134Y-15107984D01*
X12266134Y-15003222D02*
X12275658Y-14984174D01*
X12275658Y-14984174D02*
X12294705Y-14974650D01*
X12294705Y-14974650D02*
X12323277Y-14974650D01*
X12323277Y-14974650D02*
X12342325Y-14984174D01*
X12342325Y-14984174D02*
X12351848Y-15003222D01*
X12351848Y-15003222D02*
X12351848Y-15107984D01*
X12447086Y-15107984D02*
X12447086Y-14974650D01*
X12447086Y-14993698D02*
X12456610Y-14984174D01*
X12456610Y-14984174D02*
X12475658Y-14974650D01*
X12475658Y-14974650D02*
X12504229Y-14974650D01*
X12504229Y-14974650D02*
X12523277Y-14984174D01*
X12523277Y-14984174D02*
X12532801Y-15003222D01*
X12532801Y-15003222D02*
X12532801Y-15107984D01*
X12532801Y-15003222D02*
X12542325Y-14984174D01*
X12542325Y-14984174D02*
X12561372Y-14974650D01*
X12561372Y-14974650D02*
X12589944Y-14974650D01*
X12589944Y-14974650D02*
X12608991Y-14984174D01*
X12608991Y-14984174D02*
X12618515Y-15003222D01*
X12618515Y-15003222D02*
X12618515Y-15107984D01*
X13008991Y-14898460D02*
X12837563Y-15155603D01*
X13266134Y-14907984D02*
X13285182Y-14907984D01*
X13285182Y-14907984D02*
X13304229Y-14917508D01*
X13304229Y-14917508D02*
X13313753Y-14927031D01*
X13313753Y-14927031D02*
X13323277Y-14946079D01*
X13323277Y-14946079D02*
X13332801Y-14984174D01*
X13332801Y-14984174D02*
X13332801Y-15031793D01*
X13332801Y-15031793D02*
X13323277Y-15069888D01*
X13323277Y-15069888D02*
X13313753Y-15088936D01*
X13313753Y-15088936D02*
X13304229Y-15098460D01*
X13304229Y-15098460D02*
X13285182Y-15107984D01*
X13285182Y-15107984D02*
X13266134Y-15107984D01*
X13266134Y-15107984D02*
X13247087Y-15098460D01*
X13247087Y-15098460D02*
X13237563Y-15088936D01*
X13237563Y-15088936D02*
X13228039Y-15069888D01*
X13228039Y-15069888D02*
X13218515Y-15031793D01*
X13218515Y-15031793D02*
X13218515Y-14984174D01*
X13218515Y-14984174D02*
X13228039Y-14946079D01*
X13228039Y-14946079D02*
X13237563Y-14927031D01*
X13237563Y-14927031D02*
X13247087Y-14917508D01*
X13247087Y-14917508D02*
X13266134Y-14907984D01*
X13418515Y-15088936D02*
X13428039Y-15098460D01*
X13428039Y-15098460D02*
X13418515Y-15107984D01*
X13418515Y-15107984D02*
X13408991Y-15098460D01*
X13408991Y-15098460D02*
X13418515Y-15088936D01*
X13418515Y-15088936D02*
X13418515Y-15107984D01*
X13618515Y-15107984D02*
X13504229Y-15107984D01*
X13561372Y-15107984D02*
X13561372Y-14907984D01*
X13561372Y-14907984D02*
X13542325Y-14936555D01*
X13542325Y-14936555D02*
X13523277Y-14955603D01*
X13523277Y-14955603D02*
X13504229Y-14965127D01*
X13742325Y-14907984D02*
X13761372Y-14907984D01*
X13761372Y-14907984D02*
X13780420Y-14917508D01*
X13780420Y-14917508D02*
X13789944Y-14927031D01*
X13789944Y-14927031D02*
X13799468Y-14946079D01*
X13799468Y-14946079D02*
X13808991Y-14984174D01*
X13808991Y-14984174D02*
X13808991Y-15031793D01*
X13808991Y-15031793D02*
X13799468Y-15069888D01*
X13799468Y-15069888D02*
X13789944Y-15088936D01*
X13789944Y-15088936D02*
X13780420Y-15098460D01*
X13780420Y-15098460D02*
X13761372Y-15107984D01*
X13761372Y-15107984D02*
X13742325Y-15107984D01*
X13742325Y-15107984D02*
X13723277Y-15098460D01*
X13723277Y-15098460D02*
X13713753Y-15088936D01*
X13713753Y-15088936D02*
X13704229Y-15069888D01*
X13704229Y-15069888D02*
X13694706Y-15031793D01*
X13694706Y-15031793D02*
X13694706Y-14984174D01*
X13694706Y-14984174D02*
X13704229Y-14946079D01*
X13704229Y-14946079D02*
X13713753Y-14927031D01*
X13713753Y-14927031D02*
X13723277Y-14917508D01*
X13723277Y-14917508D02*
X13742325Y-14907984D01*
X13980420Y-14907984D02*
X13942325Y-14907984D01*
X13942325Y-14907984D02*
X13923277Y-14917508D01*
X13923277Y-14917508D02*
X13913753Y-14927031D01*
X13913753Y-14927031D02*
X13894706Y-14955603D01*
X13894706Y-14955603D02*
X13885182Y-14993698D01*
X13885182Y-14993698D02*
X13885182Y-15069888D01*
X13885182Y-15069888D02*
X13894706Y-15088936D01*
X13894706Y-15088936D02*
X13904229Y-15098460D01*
X13904229Y-15098460D02*
X13923277Y-15107984D01*
X13923277Y-15107984D02*
X13961372Y-15107984D01*
X13961372Y-15107984D02*
X13980420Y-15098460D01*
X13980420Y-15098460D02*
X13989944Y-15088936D01*
X13989944Y-15088936D02*
X13999468Y-15069888D01*
X13999468Y-15069888D02*
X13999468Y-15022269D01*
X13999468Y-15022269D02*
X13989944Y-15003222D01*
X13989944Y-15003222D02*
X13980420Y-14993698D01*
X13980420Y-14993698D02*
X13961372Y-14984174D01*
X13961372Y-14984174D02*
X13923277Y-14984174D01*
X13923277Y-14984174D02*
X13904229Y-14993698D01*
X13904229Y-14993698D02*
X13894706Y-15003222D01*
X13894706Y-15003222D02*
X13885182Y-15022269D01*
X14066134Y-14907984D02*
X14189944Y-14907984D01*
X14189944Y-14907984D02*
X14123277Y-14984174D01*
X14123277Y-14984174D02*
X14151849Y-14984174D01*
X14151849Y-14984174D02*
X14170896Y-14993698D01*
X14170896Y-14993698D02*
X14180420Y-15003222D01*
X14180420Y-15003222D02*
X14189944Y-15022269D01*
X14189944Y-15022269D02*
X14189944Y-15069888D01*
X14189944Y-15069888D02*
X14180420Y-15088936D01*
X14180420Y-15088936D02*
X14170896Y-15098460D01*
X14170896Y-15098460D02*
X14151849Y-15107984D01*
X14151849Y-15107984D02*
X14094706Y-15107984D01*
X14094706Y-15107984D02*
X14075658Y-15098460D01*
X14075658Y-15098460D02*
X14066134Y-15088936D01*
X14266134Y-14907984D02*
X14266134Y-14946079D01*
X14342325Y-14907984D02*
X14342325Y-14946079D01*
X14637563Y-15184174D02*
X14628039Y-15174650D01*
X14628039Y-15174650D02*
X14608991Y-15146079D01*
X14608991Y-15146079D02*
X14599468Y-15127031D01*
X14599468Y-15127031D02*
X14589944Y-15098460D01*
X14589944Y-15098460D02*
X14580420Y-15050841D01*
X14580420Y-15050841D02*
X14580420Y-15012746D01*
X14580420Y-15012746D02*
X14589944Y-14965127D01*
X14589944Y-14965127D02*
X14599468Y-14936555D01*
X14599468Y-14936555D02*
X14608991Y-14917508D01*
X14608991Y-14917508D02*
X14628039Y-14888936D01*
X14628039Y-14888936D02*
X14637563Y-14879412D01*
X14799468Y-14974650D02*
X14799468Y-15107984D01*
X14751849Y-14898460D02*
X14704230Y-15041317D01*
X14704230Y-15041317D02*
X14828039Y-15041317D01*
X15056611Y-15107984D02*
X15056611Y-14907984D01*
X15142325Y-15107984D02*
X15142325Y-15003222D01*
X15142325Y-15003222D02*
X15132801Y-14984174D01*
X15132801Y-14984174D02*
X15113753Y-14974650D01*
X15113753Y-14974650D02*
X15085182Y-14974650D01*
X15085182Y-14974650D02*
X15066134Y-14984174D01*
X15066134Y-14984174D02*
X15056611Y-14993698D01*
X15266134Y-15107984D02*
X15247087Y-15098460D01*
X15247087Y-15098460D02*
X15237563Y-15088936D01*
X15237563Y-15088936D02*
X15228039Y-15069888D01*
X15228039Y-15069888D02*
X15228039Y-15012746D01*
X15228039Y-15012746D02*
X15237563Y-14993698D01*
X15237563Y-14993698D02*
X15247087Y-14984174D01*
X15247087Y-14984174D02*
X15266134Y-14974650D01*
X15266134Y-14974650D02*
X15294706Y-14974650D01*
X15294706Y-14974650D02*
X15313753Y-14984174D01*
X15313753Y-14984174D02*
X15323277Y-14993698D01*
X15323277Y-14993698D02*
X15332801Y-15012746D01*
X15332801Y-15012746D02*
X15332801Y-15069888D01*
X15332801Y-15069888D02*
X15323277Y-15088936D01*
X15323277Y-15088936D02*
X15313753Y-15098460D01*
X15313753Y-15098460D02*
X15294706Y-15107984D01*
X15294706Y-15107984D02*
X15266134Y-15107984D01*
X15447087Y-15107984D02*
X15428039Y-15098460D01*
X15428039Y-15098460D02*
X15418515Y-15079412D01*
X15418515Y-15079412D02*
X15418515Y-14907984D01*
X15599468Y-15098460D02*
X15580420Y-15107984D01*
X15580420Y-15107984D02*
X15542325Y-15107984D01*
X15542325Y-15107984D02*
X15523277Y-15098460D01*
X15523277Y-15098460D02*
X15513753Y-15079412D01*
X15513753Y-15079412D02*
X15513753Y-15003222D01*
X15513753Y-15003222D02*
X15523277Y-14984174D01*
X15523277Y-14984174D02*
X15542325Y-14974650D01*
X15542325Y-14974650D02*
X15580420Y-14974650D01*
X15580420Y-14974650D02*
X15599468Y-14984174D01*
X15599468Y-14984174D02*
X15608992Y-15003222D01*
X15608992Y-15003222D02*
X15608992Y-15022269D01*
X15608992Y-15022269D02*
X15513753Y-15041317D01*
X15685182Y-15098460D02*
X15704230Y-15107984D01*
X15704230Y-15107984D02*
X15742325Y-15107984D01*
X15742325Y-15107984D02*
X15761373Y-15098460D01*
X15761373Y-15098460D02*
X15770896Y-15079412D01*
X15770896Y-15079412D02*
X15770896Y-15069888D01*
X15770896Y-15069888D02*
X15761373Y-15050841D01*
X15761373Y-15050841D02*
X15742325Y-15041317D01*
X15742325Y-15041317D02*
X15713753Y-15041317D01*
X15713753Y-15041317D02*
X15694706Y-15031793D01*
X15694706Y-15031793D02*
X15685182Y-15012746D01*
X15685182Y-15012746D02*
X15685182Y-15003222D01*
X15685182Y-15003222D02*
X15694706Y-14984174D01*
X15694706Y-14984174D02*
X15713753Y-14974650D01*
X15713753Y-14974650D02*
X15742325Y-14974650D01*
X15742325Y-14974650D02*
X15761373Y-14984174D01*
X15837563Y-15184174D02*
X15847087Y-15174650D01*
X15847087Y-15174650D02*
X15866134Y-15146079D01*
X15866134Y-15146079D02*
X15875658Y-15127031D01*
X15875658Y-15127031D02*
X15885182Y-15098460D01*
X15885182Y-15098460D02*
X15894706Y-15050841D01*
X15894706Y-15050841D02*
X15894706Y-15012746D01*
X15894706Y-15012746D02*
X15885182Y-14965127D01*
X15885182Y-14965127D02*
X15875658Y-14936555D01*
X15875658Y-14936555D02*
X15866134Y-14917508D01*
X15866134Y-14917508D02*
X15847087Y-14888936D01*
X15847087Y-14888936D02*
X15837563Y-14879412D01*
X16199468Y-15184174D02*
X16189944Y-15174650D01*
X16189944Y-15174650D02*
X16170896Y-15146079D01*
X16170896Y-15146079D02*
X16161373Y-15127031D01*
X16161373Y-15127031D02*
X16151849Y-15098460D01*
X16151849Y-15098460D02*
X16142325Y-15050841D01*
X16142325Y-15050841D02*
X16142325Y-15012746D01*
X16142325Y-15012746D02*
X16151849Y-14965127D01*
X16151849Y-14965127D02*
X16161373Y-14936555D01*
X16161373Y-14936555D02*
X16170896Y-14917508D01*
X16170896Y-14917508D02*
X16189944Y-14888936D01*
X16189944Y-14888936D02*
X16199468Y-14879412D01*
X16275658Y-14974650D02*
X16275658Y-15107984D01*
X16275658Y-14993698D02*
X16285182Y-14984174D01*
X16285182Y-14984174D02*
X16304230Y-14974650D01*
X16304230Y-14974650D02*
X16332801Y-14974650D01*
X16332801Y-14974650D02*
X16351849Y-14984174D01*
X16351849Y-14984174D02*
X16361373Y-15003222D01*
X16361373Y-15003222D02*
X16361373Y-15107984D01*
X16485182Y-15107984D02*
X16466134Y-15098460D01*
X16466134Y-15098460D02*
X16456611Y-15088936D01*
X16456611Y-15088936D02*
X16447087Y-15069888D01*
X16447087Y-15069888D02*
X16447087Y-15012746D01*
X16447087Y-15012746D02*
X16456611Y-14993698D01*
X16456611Y-14993698D02*
X16466134Y-14984174D01*
X16466134Y-14984174D02*
X16485182Y-14974650D01*
X16485182Y-14974650D02*
X16513754Y-14974650D01*
X16513754Y-14974650D02*
X16532801Y-14984174D01*
X16532801Y-14984174D02*
X16542325Y-14993698D01*
X16542325Y-14993698D02*
X16551849Y-15012746D01*
X16551849Y-15012746D02*
X16551849Y-15069888D01*
X16551849Y-15069888D02*
X16542325Y-15088936D01*
X16542325Y-15088936D02*
X16532801Y-15098460D01*
X16532801Y-15098460D02*
X16513754Y-15107984D01*
X16513754Y-15107984D02*
X16485182Y-15107984D01*
X16608992Y-14974650D02*
X16685182Y-14974650D01*
X16637563Y-14907984D02*
X16637563Y-15079412D01*
X16637563Y-15079412D02*
X16647087Y-15098460D01*
X16647087Y-15098460D02*
X16666134Y-15107984D01*
X16666134Y-15107984D02*
X16685182Y-15107984D01*
X16904230Y-14974650D02*
X16904230Y-15174650D01*
X16904230Y-14984174D02*
X16923277Y-14974650D01*
X16923277Y-14974650D02*
X16961373Y-14974650D01*
X16961373Y-14974650D02*
X16980420Y-14984174D01*
X16980420Y-14984174D02*
X16989944Y-14993698D01*
X16989944Y-14993698D02*
X16999468Y-15012746D01*
X16999468Y-15012746D02*
X16999468Y-15069888D01*
X16999468Y-15069888D02*
X16989944Y-15088936D01*
X16989944Y-15088936D02*
X16980420Y-15098460D01*
X16980420Y-15098460D02*
X16961373Y-15107984D01*
X16961373Y-15107984D02*
X16923277Y-15107984D01*
X16923277Y-15107984D02*
X16904230Y-15098460D01*
X17113754Y-15107984D02*
X17094706Y-15098460D01*
X17094706Y-15098460D02*
X17085182Y-15079412D01*
X17085182Y-15079412D02*
X17085182Y-14907984D01*
X17275658Y-15107984D02*
X17275658Y-15003222D01*
X17275658Y-15003222D02*
X17266135Y-14984174D01*
X17266135Y-14984174D02*
X17247087Y-14974650D01*
X17247087Y-14974650D02*
X17208992Y-14974650D01*
X17208992Y-14974650D02*
X17189944Y-14984174D01*
X17275658Y-15098460D02*
X17256611Y-15107984D01*
X17256611Y-15107984D02*
X17208992Y-15107984D01*
X17208992Y-15107984D02*
X17189944Y-15098460D01*
X17189944Y-15098460D02*
X17180420Y-15079412D01*
X17180420Y-15079412D02*
X17180420Y-15060365D01*
X17180420Y-15060365D02*
X17189944Y-15041317D01*
X17189944Y-15041317D02*
X17208992Y-15031793D01*
X17208992Y-15031793D02*
X17256611Y-15031793D01*
X17256611Y-15031793D02*
X17275658Y-15022269D01*
X17342325Y-14974650D02*
X17418516Y-14974650D01*
X17370897Y-14907984D02*
X17370897Y-15079412D01*
X17370897Y-15079412D02*
X17380420Y-15098460D01*
X17380420Y-15098460D02*
X17399468Y-15107984D01*
X17399468Y-15107984D02*
X17418516Y-15107984D01*
X17561373Y-15098460D02*
X17542325Y-15107984D01*
X17542325Y-15107984D02*
X17504230Y-15107984D01*
X17504230Y-15107984D02*
X17485182Y-15098460D01*
X17485182Y-15098460D02*
X17475658Y-15079412D01*
X17475658Y-15079412D02*
X17475658Y-15003222D01*
X17475658Y-15003222D02*
X17485182Y-14984174D01*
X17485182Y-14984174D02*
X17504230Y-14974650D01*
X17504230Y-14974650D02*
X17542325Y-14974650D01*
X17542325Y-14974650D02*
X17561373Y-14984174D01*
X17561373Y-14984174D02*
X17570897Y-15003222D01*
X17570897Y-15003222D02*
X17570897Y-15022269D01*
X17570897Y-15022269D02*
X17475658Y-15041317D01*
X17742325Y-15107984D02*
X17742325Y-14907984D01*
X17742325Y-15098460D02*
X17723278Y-15107984D01*
X17723278Y-15107984D02*
X17685182Y-15107984D01*
X17685182Y-15107984D02*
X17666135Y-15098460D01*
X17666135Y-15098460D02*
X17656611Y-15088936D01*
X17656611Y-15088936D02*
X17647087Y-15069888D01*
X17647087Y-15069888D02*
X17647087Y-15012746D01*
X17647087Y-15012746D02*
X17656611Y-14993698D01*
X17656611Y-14993698D02*
X17666135Y-14984174D01*
X17666135Y-14984174D02*
X17685182Y-14974650D01*
X17685182Y-14974650D02*
X17723278Y-14974650D01*
X17723278Y-14974650D02*
X17742325Y-14984174D01*
X17818516Y-15184174D02*
X17828039Y-15174650D01*
X17828039Y-15174650D02*
X17847087Y-15146079D01*
X17847087Y-15146079D02*
X17856611Y-15127031D01*
X17856611Y-15127031D02*
X17866135Y-15098460D01*
X17866135Y-15098460D02*
X17875658Y-15050841D01*
X17875658Y-15050841D02*
X17875658Y-15012746D01*
X17875658Y-15012746D02*
X17866135Y-14965127D01*
X17866135Y-14965127D02*
X17856611Y-14936555D01*
X17856611Y-14936555D02*
X17847087Y-14917508D01*
X17847087Y-14917508D02*
X17828039Y-14888936D01*
X17828039Y-14888936D02*
X17818516Y-14879412D01*
M02*
