%TF.GenerationSoftware,KiCad,Pcbnew,9.0.5*%
%TF.CreationDate,2026-01-14T21:12:50-08:00*%
%TF.ProjectId,CUTIE-CITRUS,43555449-452d-4434-9954-5255532e6b69,rev?*%
%TF.SameCoordinates,Original*%
%TF.FileFunction,Soldermask,Top*%
%TF.FilePolarity,Negative*%
%FSLAX46Y46*%
G04 Gerber Fmt 4.6, Leading zero omitted, Abs format (unit mm)*
G04 Created by KiCad (PCBNEW 9.0.5) date 2026-01-14 21:12:50*
%MOMM*%
%LPD*%
G01*
G04 APERTURE LIST*
G04 Aperture macros list*
%AMRoundRect*
0 Rectangle with rounded corners*
0 $1 Rounding radius*
0 $2 $3 $4 $5 $6 $7 $8 $9 X,Y pos of 4 corners*
0 Add a 4 corners polygon primitive as box body*
4,1,4,$2,$3,$4,$5,$6,$7,$8,$9,$2,$3,0*
0 Add four circle primitives for the rounded corners*
1,1,$1+$1,$2,$3*
1,1,$1+$1,$4,$5*
1,1,$1+$1,$6,$7*
1,1,$1+$1,$8,$9*
0 Add four rect primitives between the rounded corners*
20,1,$1+$1,$2,$3,$4,$5,0*
20,1,$1+$1,$4,$5,$6,$7,0*
20,1,$1+$1,$6,$7,$8,$9,0*
20,1,$1+$1,$8,$9,$2,$3,0*%
G04 Aperture macros list end*
%ADD10RoundRect,0.135000X0.185000X-0.135000X0.185000X0.135000X-0.185000X0.135000X-0.185000X-0.135000X0*%
%ADD11O,0.350000X0.850000*%
%ADD12R,4.250000X1.650000*%
%ADD13C,1.000000*%
%ADD14RoundRect,0.218750X0.218750X0.256250X-0.218750X0.256250X-0.218750X-0.256250X0.218750X-0.256250X0*%
%ADD15RoundRect,0.250000X0.250000X0.475000X-0.250000X0.475000X-0.250000X-0.475000X0.250000X-0.475000X0*%
%ADD16RoundRect,0.218750X-0.218750X-0.256250X0.218750X-0.256250X0.218750X0.256250X-0.218750X0.256250X0*%
%ADD17RoundRect,0.135000X-0.135000X-0.185000X0.135000X-0.185000X0.135000X0.185000X-0.135000X0.185000X0*%
%ADD18RoundRect,0.250000X-0.475000X0.250000X-0.475000X-0.250000X0.475000X-0.250000X0.475000X0.250000X0*%
%ADD19R,0.750000X0.300000*%
%ADD20R,1.300000X1.500000*%
%ADD21RoundRect,0.140000X0.140000X0.170000X-0.140000X0.170000X-0.140000X-0.170000X0.140000X-0.170000X0*%
%ADD22RoundRect,0.140000X0.170000X-0.140000X0.170000X0.140000X-0.170000X0.140000X-0.170000X-0.140000X0*%
%ADD23R,1.854500X2.286000*%
%ADD24RoundRect,0.140000X-0.140000X-0.170000X0.140000X-0.170000X0.140000X0.170000X-0.140000X0.170000X0*%
%ADD25C,1.450000*%
%ADD26RoundRect,0.102000X-0.250000X-0.650000X0.250000X-0.650000X0.250000X0.650000X-0.250000X0.650000X0*%
%ADD27RoundRect,0.102000X-0.250000X-0.760000X0.250000X-0.760000X0.250000X0.760000X-0.250000X0.760000X0*%
%ADD28C,1.412000*%
%ADD29C,2.614000*%
%ADD30C,2.000000*%
%ADD31RoundRect,0.140000X-0.170000X0.140000X-0.170000X-0.140000X0.170000X-0.140000X0.170000X0.140000X0*%
%ADD32RoundRect,0.137500X0.137500X-0.612500X0.137500X0.612500X-0.137500X0.612500X-0.137500X-0.612500X0*%
%ADD33RoundRect,0.135000X0.135000X0.185000X-0.135000X0.185000X-0.135000X-0.185000X0.135000X-0.185000X0*%
%ADD34R,0.300000X1.300000*%
%ADD35R,1.800000X2.200000*%
%ADD36RoundRect,0.087500X-0.087500X0.225000X-0.087500X-0.225000X0.087500X-0.225000X0.087500X0.225000X0*%
%ADD37RoundRect,0.087500X-0.225000X0.087500X-0.225000X-0.087500X0.225000X-0.087500X0.225000X0.087500X0*%
%ADD38RoundRect,0.250000X-0.450000X-0.350000X0.450000X-0.350000X0.450000X0.350000X-0.450000X0.350000X0*%
%ADD39C,1.150000*%
%ADD40C,1.650000*%
%ADD41RoundRect,0.102000X0.775000X-0.150000X0.775000X0.150000X-0.775000X0.150000X-0.775000X-0.150000X0*%
%ADD42C,6.200000*%
%ADD43RoundRect,0.102000X1.375000X-0.600000X1.375000X0.600000X-1.375000X0.600000X-1.375000X-0.600000X0*%
%ADD44R,0.300000X0.500000*%
%ADD45R,1.750000X1.050000*%
%ADD46RoundRect,0.200000X-0.200000X-0.250000X0.200000X-0.250000X0.200000X0.250000X-0.200000X0.250000X0*%
%ADD47RoundRect,0.250000X0.475000X-0.250000X0.475000X0.250000X-0.475000X0.250000X-0.475000X-0.250000X0*%
%ADD48C,6.100000*%
G04 APERTURE END LIST*
D10*
%TO.C,R10*%
X131750000Y-103360000D03*
X131750000Y-102340000D03*
%TD*%
D11*
%TO.C,U7*%
X129312500Y-76102500D03*
X128662500Y-76102500D03*
X128012500Y-76102500D03*
X127362500Y-76102500D03*
X126712500Y-76102500D03*
X126062500Y-76102500D03*
X125412500Y-76102500D03*
X125412500Y-79102500D03*
X126062500Y-79102500D03*
X126712500Y-79102500D03*
X127362500Y-79102500D03*
X128012500Y-79102500D03*
X128662500Y-79102500D03*
X129312500Y-79102500D03*
D12*
X127362500Y-77602500D03*
%TD*%
D13*
%TO.C,TP21*%
X155850000Y-66350000D03*
%TD*%
D14*
%TO.C,D1*%
X128387500Y-132500000D03*
X126812500Y-132500000D03*
%TD*%
D13*
%TO.C,GND3*%
X142600000Y-98300000D03*
%TD*%
D14*
%TO.C,D3*%
X154487500Y-117900000D03*
X152912500Y-117900000D03*
%TD*%
D15*
%TO.C,C1*%
X142250000Y-78400000D03*
X140350000Y-78400000D03*
%TD*%
D13*
%TO.C,GND1*%
X161100000Y-75400000D03*
%TD*%
D16*
%TO.C,D2*%
X123662500Y-132500000D03*
X125237500Y-132500000D03*
%TD*%
D17*
%TO.C,R1*%
X131190000Y-110400000D03*
X132210000Y-110400000D03*
%TD*%
D13*
%TO.C,TP5*%
X140300000Y-118750000D03*
%TD*%
D18*
%TO.C,C9*%
X149350000Y-89300000D03*
X149350000Y-91200000D03*
%TD*%
D13*
%TO.C,TP14*%
X127750000Y-94100000D03*
%TD*%
D19*
%TO.C,U5*%
X122100000Y-102500000D03*
X122100000Y-103000000D03*
X122100000Y-103500000D03*
X122100000Y-104000000D03*
X125000000Y-104000000D03*
X125000000Y-103500000D03*
X125000000Y-103000000D03*
X125000000Y-102500000D03*
D20*
X123550000Y-103250000D03*
%TD*%
D13*
%TO.C,TP9*%
X127950000Y-103200000D03*
%TD*%
%TO.C,GND2*%
X116800000Y-78700000D03*
%TD*%
D21*
%TO.C,C11*%
X122930000Y-94450000D03*
X121970000Y-94450000D03*
%TD*%
D22*
%TO.C,C12*%
X121500000Y-90180000D03*
X121500000Y-89220000D03*
%TD*%
D23*
%TO.C,L1*%
X142707750Y-88400000D03*
X146492250Y-88400000D03*
%TD*%
D24*
%TO.C,C4*%
X155320000Y-90800000D03*
X156280000Y-90800000D03*
%TD*%
D25*
%TO.C,P1*%
X136375000Y-60820000D03*
X163625000Y-60820000D03*
D26*
X140400000Y-59660000D03*
D27*
X140400000Y-61450000D03*
D26*
X141200000Y-59660000D03*
D27*
X141200000Y-61450000D03*
D26*
X142000000Y-59660000D03*
D27*
X142000000Y-61450000D03*
D26*
X142800000Y-59660000D03*
D27*
X142800000Y-61450000D03*
D26*
X143600000Y-59660000D03*
D27*
X143600000Y-61450000D03*
D26*
X144400000Y-59660000D03*
D27*
X144400000Y-61450000D03*
D26*
X145200000Y-59660000D03*
D27*
X145200000Y-61450000D03*
D26*
X146000000Y-59660000D03*
D27*
X146000000Y-61450000D03*
D26*
X146800000Y-59660000D03*
D27*
X146800000Y-61450000D03*
D26*
X147600000Y-59660000D03*
D27*
X147600000Y-61450000D03*
D26*
X148400000Y-59660000D03*
D27*
X148400000Y-61450000D03*
D26*
X149200000Y-59660000D03*
D27*
X149200000Y-61450000D03*
D26*
X150000000Y-59660000D03*
D27*
X150000000Y-61450000D03*
D26*
X150800000Y-59660000D03*
D27*
X150800000Y-61450000D03*
D26*
X151600000Y-59660000D03*
D27*
X151600000Y-61450000D03*
D26*
X152400000Y-59660000D03*
D27*
X152400000Y-61450000D03*
D26*
X153200000Y-59660000D03*
D27*
X153200000Y-61450000D03*
D26*
X154000000Y-59660000D03*
D27*
X154000000Y-61450000D03*
D26*
X154800000Y-59660000D03*
D27*
X154800000Y-61450000D03*
D26*
X155600000Y-59660000D03*
D27*
X155600000Y-61450000D03*
D26*
X156400000Y-59660000D03*
D27*
X156400000Y-61450000D03*
D26*
X157200000Y-59660000D03*
D27*
X157200000Y-61450000D03*
D26*
X158000000Y-59660000D03*
D27*
X158000000Y-61450000D03*
D26*
X158800000Y-59660000D03*
D27*
X158800000Y-61450000D03*
D26*
X159600000Y-59660000D03*
D27*
X159600000Y-61450000D03*
D28*
X137000000Y-59040000D03*
D29*
X136375000Y-64820000D03*
D28*
X163000000Y-59040000D03*
D29*
X163625000Y-64820000D03*
%TD*%
D30*
%TO.C,5V0*%
X162100000Y-70300000D03*
%TD*%
D31*
%TO.C,C13*%
X123900000Y-67520000D03*
X123900000Y-68480000D03*
%TD*%
D13*
%TO.C,TP11*%
X132250000Y-99850000D03*
%TD*%
D22*
%TO.C,C14*%
X130800000Y-79080000D03*
X130800000Y-78120000D03*
%TD*%
D32*
%TO.C,U8*%
X125495000Y-72850000D03*
X126765000Y-72850000D03*
X128035000Y-72850000D03*
X129305000Y-72850000D03*
X129305000Y-67550000D03*
X128035000Y-67550000D03*
X126765000Y-67550000D03*
X125495000Y-67550000D03*
%TD*%
D33*
%TO.C,R3*%
X128110000Y-131150000D03*
X127090000Y-131150000D03*
%TD*%
D34*
%TO.C,J1*%
X164000000Y-128700000D03*
X163500000Y-128700000D03*
X163000000Y-128700000D03*
X162500000Y-128700000D03*
X162000000Y-128700000D03*
X161500000Y-128700000D03*
X161000000Y-128700000D03*
X160500000Y-128700000D03*
X160000000Y-128700000D03*
X159500000Y-128700000D03*
X159000000Y-128700000D03*
X158500000Y-128700000D03*
X158000000Y-128700000D03*
X157500000Y-128700000D03*
X157000000Y-128700000D03*
X156500000Y-128700000D03*
X156000000Y-128700000D03*
X155500000Y-128700000D03*
X155000000Y-128700000D03*
X154500000Y-128700000D03*
X154000000Y-128700000D03*
X153500000Y-128700000D03*
D35*
X151600000Y-131950000D03*
X165900000Y-131950000D03*
%TD*%
D21*
%TO.C,C3*%
X142280000Y-82200000D03*
X141320000Y-82200000D03*
%TD*%
D13*
%TO.C,GND4*%
X117700000Y-112000000D03*
%TD*%
%TO.C,TP7*%
X132200000Y-113400000D03*
%TD*%
%TO.C,TP18*%
X152650000Y-66350000D03*
%TD*%
D15*
%TO.C,C2*%
X142250000Y-80600000D03*
X140350000Y-80600000D03*
%TD*%
D36*
%TO.C,U3*%
X124500000Y-89437500D03*
X124000000Y-89437500D03*
X123500000Y-89437500D03*
X123000000Y-89437500D03*
D37*
X122837500Y-90100000D03*
X122837500Y-90600000D03*
X122837500Y-91100000D03*
D36*
X123000000Y-91762500D03*
X123500000Y-91762500D03*
X124000000Y-91762500D03*
X124500000Y-91762500D03*
D37*
X124662500Y-91100000D03*
X124662500Y-90600000D03*
X124662500Y-90100000D03*
%TD*%
D10*
%TO.C,R8*%
X156000000Y-115760000D03*
X156000000Y-114740000D03*
%TD*%
D13*
%TO.C,TP12*%
X128650000Y-91750000D03*
%TD*%
%TO.C,TP20*%
X154500000Y-67850000D03*
%TD*%
D38*
%TO.C,Y2*%
X154800000Y-89050000D03*
X157000000Y-89050000D03*
X157000000Y-87350000D03*
X154800000Y-87350000D03*
%TD*%
D30*
%TO.C,3V3*%
X115500000Y-92500000D03*
%TD*%
D13*
%TO.C,TP16*%
X136900000Y-117050000D03*
%TD*%
D39*
%TO.C,J3*%
X151923000Y-115000000D03*
D40*
X151923000Y-95000000D03*
D41*
X146648000Y-114250000D03*
X154198000Y-114000000D03*
X146648000Y-113750000D03*
X154198000Y-113500000D03*
X146648000Y-113250000D03*
X154198000Y-113000000D03*
X146648000Y-112750000D03*
X154198000Y-112500000D03*
X146648000Y-112250000D03*
X154198000Y-112000000D03*
X146648000Y-111750000D03*
X154198000Y-111500000D03*
X146648000Y-111250000D03*
X154198000Y-111000000D03*
X146648000Y-110750000D03*
X154198000Y-110500000D03*
X146648000Y-110250000D03*
X154198000Y-110000000D03*
X146648000Y-109750000D03*
X154198000Y-109500000D03*
X146648000Y-109250000D03*
X154198000Y-109000000D03*
X146648000Y-108750000D03*
X154198000Y-108500000D03*
X146648000Y-108250000D03*
X154198000Y-108000000D03*
X146648000Y-107750000D03*
X154198000Y-107500000D03*
X146648000Y-107250000D03*
X154198000Y-107000000D03*
X146648000Y-106750000D03*
X154198000Y-106500000D03*
X146648000Y-106250000D03*
X154198000Y-106000000D03*
X146648000Y-105750000D03*
X154198000Y-105500000D03*
X146648000Y-105250000D03*
X154198000Y-105000000D03*
X146648000Y-104750000D03*
X154198000Y-104500000D03*
X146648000Y-104250000D03*
X154198000Y-104000000D03*
X146648000Y-103750000D03*
X154198000Y-103500000D03*
X146648000Y-103250000D03*
X154198000Y-103000000D03*
X146648000Y-102750000D03*
X154198000Y-102500000D03*
X146648000Y-102250000D03*
X154198000Y-102000000D03*
X146648000Y-101750000D03*
X154198000Y-101500000D03*
X146648000Y-101250000D03*
X154198000Y-101000000D03*
X146648000Y-100750000D03*
X154198000Y-100500000D03*
X146648000Y-100250000D03*
X154198000Y-100000000D03*
X146648000Y-97750000D03*
X154198000Y-97500000D03*
X146648000Y-97250000D03*
X154198000Y-97000000D03*
X146648000Y-96750000D03*
X154198000Y-96500000D03*
X146648000Y-96250000D03*
X154198000Y-96000000D03*
X146648000Y-95750000D03*
D42*
X180173000Y-105000000D03*
D43*
X147423000Y-115350000D03*
X147423000Y-94650000D03*
%TD*%
D21*
%TO.C,C10*%
X122930000Y-93200000D03*
X121970000Y-93200000D03*
%TD*%
D10*
%TO.C,R11*%
X149500000Y-125460000D03*
X149500000Y-124440000D03*
%TD*%
D13*
%TO.C,3V3_M2*%
X154150000Y-92050000D03*
%TD*%
D44*
%TO.C,U1*%
X143500000Y-83500000D03*
X143000000Y-83500000D03*
X142500000Y-83500000D03*
X142000000Y-83500000D03*
X142000000Y-85300000D03*
X142500000Y-85300000D03*
X143000000Y-85300000D03*
X143500000Y-85300000D03*
D45*
X142750000Y-84400000D03*
%TD*%
D10*
%TO.C,R7*%
X145800000Y-82510000D03*
X145800000Y-81490000D03*
%TD*%
D34*
%TO.C,J2*%
X146500000Y-128700000D03*
X146000000Y-128700000D03*
X145500000Y-128700000D03*
X145000000Y-128700000D03*
X144500000Y-128700000D03*
X144000000Y-128700000D03*
X143500000Y-128700000D03*
X143000000Y-128700000D03*
X142500000Y-128700000D03*
X142000000Y-128700000D03*
X141500000Y-128700000D03*
X141000000Y-128700000D03*
X140500000Y-128700000D03*
X140000000Y-128700000D03*
X139500000Y-128700000D03*
X139000000Y-128700000D03*
X138500000Y-128700000D03*
X138000000Y-128700000D03*
X137500000Y-128700000D03*
X137000000Y-128700000D03*
X136500000Y-128700000D03*
X136000000Y-128700000D03*
D35*
X134100000Y-131950000D03*
X148400000Y-131950000D03*
%TD*%
D17*
%TO.C,R5*%
X171990000Y-106200000D03*
X173010000Y-106200000D03*
%TD*%
D21*
%TO.C,C16*%
X125180000Y-101250000D03*
X124220000Y-101250000D03*
%TD*%
D10*
%TO.C,R9*%
X126350000Y-105210000D03*
X126350000Y-104190000D03*
%TD*%
D18*
%TO.C,C7*%
X151600000Y-89300000D03*
X151600000Y-91200000D03*
%TD*%
D17*
%TO.C,R4*%
X123940000Y-131150000D03*
X124960000Y-131150000D03*
%TD*%
D22*
%TO.C,C5*%
X144700000Y-84480000D03*
X144700000Y-83520000D03*
%TD*%
D46*
%TO.C,Y1*%
X122375000Y-73375000D03*
X122375000Y-75225000D03*
X123825000Y-75225000D03*
X123825000Y-73375000D03*
%TD*%
D13*
%TO.C,GND5*%
X173500000Y-119500000D03*
%TD*%
%TO.C,TP19*%
X151300000Y-67850000D03*
%TD*%
D17*
%TO.C,R13*%
X122590000Y-77300000D03*
X123610000Y-77300000D03*
%TD*%
D47*
%TO.C,C6*%
X151600000Y-87450000D03*
X151600000Y-85550000D03*
%TD*%
D24*
%TO.C,C15*%
X122622500Y-71917500D03*
X123582500Y-71917500D03*
%TD*%
D33*
%TO.C,R12*%
X137360000Y-109250000D03*
X136340000Y-109250000D03*
%TD*%
D17*
%TO.C,R2*%
X133990000Y-110400000D03*
X135010000Y-110400000D03*
%TD*%
D13*
%TO.C,TP13*%
X128750000Y-96200000D03*
%TD*%
%TO.C,TP17*%
X133250000Y-83000000D03*
%TD*%
%TO.C,TP8*%
X135000000Y-113400000D03*
%TD*%
D10*
%TO.C,R6*%
X145800000Y-84520000D03*
X145800000Y-83500000D03*
%TD*%
D13*
%TO.C,TP6*%
X142600000Y-118750000D03*
%TD*%
D47*
%TO.C,C8*%
X149350000Y-87450000D03*
X149350000Y-85550000D03*
%TD*%
D13*
%TO.C,TP10*%
X133650000Y-102300000D03*
%TD*%
D48*
%TO.C,CM5*%
X133500000Y-74750000D03*
X133500000Y-122750000D03*
X166500000Y-74750000D03*
X166500000Y-122750000D03*
%TD*%
M02*
